<svg width="387" height="112" viewBox="0 0 387 112" fill="none" xmlns="http://www.w3.org/2000/svg">
<path d="M27.1925 41.2809C31.3892 41.5369 35.4572 41.0382 39.5328 40.7954C47.4495 40.3232 49.4446 40.0672 51.4886 39.1727C48.5598 36.629 28.1553 24.5753 24.8357 23.4282C24.6944 25.9154 26.0712 36.4893 27.1925 41.2809ZM82.0562 71.4266C81.1625 70.2462 80.1082 69.9669 79.1742 69.5745C74.0407 67.4132 68.8945 65.2851 63.7237 63.2368C53.6846 59.2599 43.4465 56.1409 32.8838 54.4651C31.7785 54.2888 30.6804 54.0794 29.5101 54.1824C29.2386 55.2132 29.4941 56.0445 29.6318 56.8858C30.4338 61.7837 31.207 66.6883 32.031 71.5796C33.2107 78.5824 34.4222 85.5784 35.6334 92.5745C35.7103 93.0168 35.9002 93.4391 36.101 94.0675C38.945 92.9603 41.6416 91.9062 44.3399 90.8555C57.3864 85.7813 69.474 78.3762 82.0562 71.4266ZM16.4547 10.4867C16.4547 9.05691 16.4078 8.09262 16.4642 7.1383C16.5879 5.04346 17.7071 3.52054 19.3497 3.11488C21.3226 2.62608 23.0836 3.72336 23.5999 5.90465C23.842 6.9288 23.8687 8.0228 23.9343 9.09017C23.9636 9.56566 23.8515 10.0578 23.799 10.5432C23.3438 14.7695 23.3236 14.816 26.567 16.7114C36.2182 22.3541 45.8766 27.9803 55.5551 33.5599C57.798 34.8534 60.1313 35.9507 62.4252 37.1311C62.7412 37.294 63.0721 37.4204 63.3928 37.5733C64.8874 38.2816 65.8265 39.5185 65.892 41.3474C65.9624 43.3026 65.0574 44.7423 63.4863 45.4905C62.3789 46.0192 61.1826 46.4149 59.9925 46.5978C58.0977 46.8871 56.1767 47.05 54.2641 47.0866C48.1646 47.2029 42.0635 47.2329 35.9631 47.2961C35.2729 47.3027 34.5825 47.2961 33.3576 47.2961C34.0139 47.8481 34.2285 48.1672 34.4931 48.2337C50.8338 52.3237 66.6528 58.3954 82.5606 64.1246C85.7891 65.2884 88.9637 66.6384 92.1548 67.9319C92.6403 68.1281 93.1174 68.4074 93.5337 68.7499C95.5691 70.4158 95.7552 73.3985 93.9482 75.3603C93.1192 76.2581 92.1246 76.8632 90.9908 77.1359C89.8844 77.4019 88.7485 77.5416 87.6652 77.894C85.2426 78.6788 82.7991 79.4269 80.4456 80.4311C75.3204 82.6158 70.217 84.8702 65.158 87.2377C57.927 90.626 50.6418 93.8481 43.248 96.7609C42.4421 97.0768 41.6582 97.4625 40.7333 97.8748C40.8924 99.0353 41.0479 100.076 41.1754 101.124C41.3775 102.776 41.487 104.422 41.0022 106.051C39.9666 109.533 36.3132 110.467 34.1389 107.721C33.403 106.79 32.9179 105.599 32.3829 104.485C31.977 103.641 31.6746 102.736 31.337 101.885C28.9573 102.48 26.2762 103.717 23.2877 105.569C23.0382 106.351 22.8346 107.202 22.5032 107.987C21.287 110.86 18.9613 112.269 16.352 111.777C13.2324 111.185 11.7434 107.647 13.4614 104.668C14.0077 103.724 14.8382 102.863 15.7111 102.297C17.1336 101.376 18.6634 100.625 20.2096 99.9896C22.7418 98.9488 25.3247 98.0644 27.8832 97.1034C28.6176 96.8274 29.3428 96.5215 30.0347 96.2422C30.3563 90.4132 25.8466 59.1768 24.0461 53.2813C23.1987 53.2049 22.2596 53.1384 21.3241 53.032C18.3795 52.6928 15.4375 52.3303 12.4924 51.9978C11.2295 51.8548 10.1602 51.1965 9.1653 50.4084C7.93126 49.4308 7.3316 48.0342 7.59301 46.3384C7.84789 44.6891 8.68165 43.4456 10.1507 42.9401C10.8862 42.6874 11.6817 42.6142 12.4562 42.5477C15.5725 42.2718 18.6913 42.029 21.8938 41.7663C21.9213 41.241 22.016 40.8552 21.9492 40.5094C20.6401 33.7361 19.3129 26.9694 17.9866 20.2028C17.9124 19.8237 17.8172 19.448 17.7065 18.9625C17.1481 18.6034 16.5656 18.1878 15.9503 17.8453C12.676 16.0198 9.39614 14.2075 6.11181 12.4053C5.3362 11.9797 4.57483 11.7004 3.63128 11.7702C1.39672 11.9398 0.0873189 10.5699 0.0033487 8.25888C-0.0794346 5.97783 1.38159 4.07251 3.39331 3.83975C4.75642 3.68347 5.96464 4.20884 7.13013 4.91377C9.42878 6.307 11.7248 7.70358 14.0255 9.09017C14.7035 9.49916 15.3954 9.87823 16.4547 10.4867Z" fill="white"/>
<path d="M136.924 46.9156C136.233 46.6106 135.993 47.1976 135.68 47.5091C132.383 50.8439 129.091 54.1853 125.814 57.5529C121.466 62.0222 117.132 66.5146 112.802 71.0069C112.5 71.3217 111.994 71.5217 112.091 72.2562C112.386 72.1808 112.632 72.1218 112.878 72.0529C118.475 70.5052 124.067 68.9476 129.661 67.4032C133.653 66.3047 137.655 65.2554 141.796 65.157C141.977 65.1538 142.153 65.016 142.445 64.8947C142.372 64.4553 142.34 64.0225 142.229 63.6159C140.681 57.9365 138.858 52.3654 136.924 46.9156ZM144.142 72.1251C143.671 72.0136 143.326 71.9873 143.028 71.8463C141.044 70.9118 138.998 71.0626 136.944 71.3545C132.058 72.0464 127.312 73.4859 122.551 74.827C116.24 76.6075 110.04 78.7783 104.073 81.7426C103.049 82.2541 101.949 82.5853 100.875 82.9624C100.223 83.1886 99.5644 83.1099 98.9207 82.841C97.0597 82.0705 96.4013 79.6735 97.6156 77.9159C97.9755 77.3945 98.4583 76.9617 98.9411 76.5813C108.041 69.3903 116.219 61.009 124.114 52.2539C127.37 48.6404 130.607 45.0006 133.849 41.3739C134.08 41.1116 134.302 40.8427 134.601 40.4886C131.841 32.7762 128.851 25.2049 125.395 17.5384C123.669 21.0536 121.627 23.8834 119.57 26.7034C118.856 27.6839 118.066 28.5954 117.369 29.589C116.588 30.694 115.871 31.8548 115.128 32.9959C114.894 33.3566 114.707 33.7632 114.434 34.078C113.615 35.0093 112.454 35.0978 111.535 34.3502C110.718 33.6846 110.394 32.4319 110.806 31.3531C110.961 30.9531 111.228 30.6055 111.459 30.2448C111.997 29.3988 112.571 28.5758 113.083 27.7101C114.666 25.0442 116.175 22.3291 117.805 19.7059C119.338 17.2335 120.524 14.6036 121.261 11.7115C121.425 11.0688 121.627 10.436 121.849 9.81621C122.273 8.65542 123.043 7.86516 124.055 7.36018C125.688 6.54697 127.122 7.12082 127.818 8.98005C128.459 10.6917 128.994 12.4559 129.574 14.197C129.802 14.8955 129.986 15.6136 130.255 16.2924C135.373 29.2185 139.733 42.4823 144.233 55.6871C146.337 61.8747 148.236 68.1443 149.971 74.4729C150.223 75.3943 150.574 76.2796 150.878 77.1847C150.995 77.5322 151.133 77.8732 151.218 78.2307C151.607 79.844 150.925 81.4868 149.614 82.1229C148.362 82.7295 146.776 82.3229 146.1 80.9588C145.304 79.3455 144.54 77.6306 144.672 75.7025C144.757 74.4729 144.57 73.3514 144.142 72.1251Z" fill="white"/>
<path d="M76.3723 21.4476C76.2967 24.7415 76.8135 28.0143 77.1013 31.2823C77.3892 34.5409 77.2358 37.8842 78.0993 41.2559C86.6293 39.1604 94.9472 36.6905 103.534 35.8476C103.494 35.5557 103.509 35.3932 103.465 35.3697C94.632 30.7737 85.5305 26.8111 77.0446 21.3887C76.9249 21.311 76.7148 21.4123 76.3723 21.4476ZM122.422 81.9578C121.602 81.268 120.852 80.6087 120.079 79.9848C117.606 77.9858 115.11 76.0198 112.65 73.9997C108.333 70.4585 103.683 67.6072 98.6302 65.6389C92.4638 63.235 86.2701 60.9205 80.0869 58.5754C79.8473 58.486 79.5826 58.4789 79.154 58.4012C79.154 59.1217 79.1183 59.7762 79.1582 60.4261C79.5763 67.2447 80.0301 74.0609 80.4209 80.8818C80.5596 83.3187 80.5554 85.765 80.6058 88.2066C80.6163 88.6917 80.6268 89.1885 80.5638 89.6664C80.3516 91.2934 79.2296 92.546 77.8304 92.7696C76.2084 93.0286 74.8134 92.2446 74.2377 90.5729C73.9625 89.7771 73.8427 88.8659 73.8427 88.0089C73.8427 85.7627 73.9162 83.5165 74.0171 81.2727C74.368 73.4629 74.3953 65.6507 74.1537 57.8362C74.1389 57.3535 74.0906 56.8708 74.0528 56.294C73.7713 56.0844 73.515 55.8184 73.2124 55.6771C70.8005 54.554 68.3969 53.405 65.9535 52.3737C64.9912 51.9688 63.9344 51.8487 62.9176 51.6062C62.4112 51.4861 61.8776 51.4508 61.3922 51.2601C59.743 50.6102 58.8879 49.1151 59.0118 47.1962C59.1295 45.3786 60.2829 43.9329 61.9511 43.5915C62.4617 43.4856 62.9953 43.5468 63.5163 43.4973C66.0333 43.2572 68.5524 43.0311 71.0652 42.7462C71.7375 42.6686 72.393 42.4002 73.0149 42.2306C73.288 39.1533 72.0821 25.0617 70.8824 17.186C70.2836 16.7221 69.5714 16.1759 68.8655 15.6179C67.441 14.4924 65.9808 13.4212 64.6173 12.211C63.8798 11.5564 63.2075 10.737 62.6907 9.85647C61.8482 8.41788 62.0078 6.64259 62.9113 5.50302C63.9597 4.1798 65.4303 3.91138 66.9494 4.83433C67.5523 5.19928 68.0902 5.69845 68.8865 6.31297C68.7856 5.61133 68.6785 5.16161 68.6596 4.70484C68.5608 2.35035 69.7206 0.502092 71.5169 0.0994748C73.4582 -0.33375 75.1201 0.657492 75.845 2.89425C76.7757 5.75966 77.2148 8.74043 77.0593 11.8083C77.0236 12.4841 76.9879 13.1622 76.9501 13.8944C79.7927 16.2253 82.7761 18.2314 85.8226 20.122C91.8587 23.8704 98.2562 26.6934 104.692 29.4316C108.597 31.0916 112.448 32.9092 116.312 34.6892C117.115 35.0589 117.89 35.525 118.627 36.036C119.63 36.7305 120.26 37.7689 120.575 39.0497C121.216 41.6444 119.703 44.0977 117.323 44.2225C116.636 44.2578 115.94 44.0836 115.249 43.9918C112.572 43.6315 109.904 43.1395 107.217 42.9323C100.647 42.4237 94.1677 43.3113 87.7597 44.9077C85.1271 45.5646 82.5114 46.311 79.8936 47.0456C79.404 47.1821 78.9418 47.4434 78.4334 47.6624C78.4103 48.1545 78.3661 48.5359 78.3851 48.9127C78.4103 49.393 78.4859 49.8709 78.5552 50.4784C79.4187 50.9187 80.2696 51.399 81.15 51.7992C87.5244 54.6882 93.8925 57.603 100.29 60.4284C106.223 63.049 111.892 66.2393 117.331 69.9617C120.157 71.8948 123.046 73.7101 125.882 75.6219C126.924 76.3259 127.964 77.0629 128.889 77.9434C130.288 79.2761 130.96 81.0325 130.887 83.1304C130.756 86.7633 127.09 88.7293 124.58 87.4202C123.292 86.7469 122.569 85.5814 122.43 84.0015C122.373 83.3352 122.422 82.6571 122.422 81.9578Z" fill="white"/>
<path d="M231.372 24.4476C231.297 27.7415 231.814 31.0143 232.101 34.2823C232.389 37.5409 232.236 40.8842 233.099 44.2559C241.629 42.1604 249.947 39.6905 258.534 38.8476C258.494 38.5557 258.509 38.3932 258.465 38.3697C249.632 33.7737 240.531 29.8111 232.045 24.3887C231.925 24.311 231.715 24.4123 231.372 24.4476ZM277.422 84.9578C276.602 84.268 275.852 83.6087 275.079 82.9848C272.606 80.9858 270.11 79.0198 267.65 76.9997C263.333 73.4585 258.683 70.6072 253.63 68.6389C247.464 66.235 241.27 63.9205 235.087 61.5754C234.847 61.486 234.583 61.4789 234.154 61.4012C234.154 62.1217 234.118 62.7762 234.158 63.4261C234.576 70.2447 235.03 77.0609 235.421 83.8818C235.56 86.3187 235.555 88.765 235.606 91.2066C235.616 91.6917 235.627 92.1885 235.564 92.6664C235.352 94.2934 234.23 95.546 232.83 95.7696C231.208 96.0286 229.813 95.2446 229.238 93.5729C228.962 92.7771 228.843 91.8659 228.843 91.0089C228.843 88.7627 228.916 86.5165 229.017 84.2727C229.368 76.4629 229.395 68.6507 229.154 60.8362C229.139 60.3535 229.091 59.8708 229.053 59.294C228.771 59.0844 228.515 58.8184 228.212 58.6771C225.8 57.554 223.397 56.405 220.953 55.3737C219.991 54.9688 218.934 54.8487 217.918 54.6062C217.411 54.4861 216.878 54.4508 216.392 54.2601C214.743 53.6102 213.888 52.1151 214.012 50.1962C214.129 48.3786 215.283 46.9329 216.951 46.5915C217.462 46.4856 217.995 46.5468 218.516 46.4973C221.033 46.2572 223.552 46.0311 226.065 45.7463C226.738 45.6686 227.393 45.4002 228.015 45.2306C228.288 42.1533 227.082 28.0617 225.882 20.186C225.284 19.7221 224.571 19.1759 223.865 18.6179C222.441 17.4924 220.981 16.4212 219.617 15.211C218.88 14.5564 218.208 13.737 217.691 12.8565C216.848 11.4179 217.008 9.64258 217.911 8.50301C218.96 7.17979 220.43 6.91138 221.949 7.83434C222.552 8.19928 223.09 8.69844 223.886 9.31297C223.786 8.61133 223.678 8.1616 223.66 7.70483C223.561 5.35035 224.721 3.50209 226.517 3.09947C228.458 2.66625 230.12 3.65749 230.845 5.89425C231.776 8.75966 232.215 11.7404 232.059 14.8083C232.024 15.4841 231.988 16.1622 231.95 16.8944C234.793 19.2253 237.776 21.2314 240.823 23.122C246.859 26.8704 253.256 29.6934 259.692 32.4316C263.597 34.0916 267.448 35.9092 271.312 37.6892C272.115 38.0589 272.89 38.525 273.627 39.036C274.63 39.7305 275.26 40.7689 275.575 42.0497C276.216 44.6444 274.703 47.0977 272.323 47.2225C271.636 47.2578 270.94 47.0836 270.249 46.9918C267.572 46.6315 264.904 46.1395 262.217 45.9323C255.647 45.4237 249.168 46.3113 242.76 47.9077C240.127 48.5646 237.511 49.311 234.894 50.0456C234.404 50.1821 233.942 50.4434 233.433 50.6624C233.41 51.1545 233.366 51.5359 233.385 51.9127C233.41 52.393 233.486 52.8709 233.555 53.4784C234.419 53.9187 235.27 54.399 236.15 54.7992C242.524 57.6882 248.892 60.603 255.29 63.4284C261.223 66.049 266.892 69.2393 272.331 72.9617C275.157 74.8948 278.046 76.7101 280.882 78.6219C281.924 79.3259 282.964 80.0629 283.889 80.9434C285.288 82.2761 285.96 84.0325 285.887 86.1304C285.756 89.7633 282.09 91.7293 279.58 90.4202C278.292 89.7469 277.569 88.5814 277.43 87.0015C277.373 86.3352 277.422 85.6571 277.422 84.9578Z" fill="white"/>
<path d="M293.337 20.0118C292.738 19.6366 292.042 19.4153 291.366 19.2398C288.273 18.4409 285.113 18.3356 281.961 18.1656C281.855 18.1575 281.749 18.1548 281.643 18.1467C280.201 18.0225 278.778 17.5853 277.346 17.2911C275.969 17.0077 274.593 16.7135 273.215 16.4409C271.578 16.117 269.939 15.8147 268.301 15.4962C267.439 15.3289 266.582 15.032 265.717 15.0023C264.01 14.9402 262.598 16.1467 262.148 17.8768C261.669 19.7203 262.373 21.7392 263.974 22.6164C264.82 23.0806 265.793 23.3397 266.734 23.4801C268.557 23.7554 270.398 23.8795 272.232 24.0739C273.095 24.1629 274.003 24.0793 274.73 24.8296C275.202 25.7257 275.078 26.7216 274.986 27.6879C274.848 29.1535 274.669 30.6137 274.458 32.0685C273.331 39.8337 272.633 47.6556 272.016 55.4856C271.561 61.2615 271.135 67.0429 270.805 72.8297C270.515 77.9283 270.328 83.0376 270.196 88.1442C270.143 90.2009 270.295 92.2711 270.476 94.3251C270.569 95.3804 270.814 96.4654 271.194 97.4371C271.875 99.1834 273.32 100.034 275.043 99.8905C276.683 99.7556 277.859 98.8568 278.43 97.1051C278.638 96.4681 278.79 95.7826 278.831 95.1078C278.971 92.8271 278.611 90.6004 278.098 88.406C277.968 87.8554 277.758 87.1213 277.378 86.8811C275.922 85.9661 276.088 84.46 276.027 82.9944C275.543 71.4532 276.397 60.0011 278.084 48.638C279.261 40.7082 280.749 32.8377 282.115 24.8377L282.136 24.835C282.207 24.8431 282.28 24.8458 282.352 24.8539C283.747 24.9807 285.134 25.2425 286.518 25.4936C287.205 25.6177 287.792 25.9227 288.353 26.503C290.344 28.557 292.554 28.3519 294.262 26.0793C295.753 24.0981 295.347 21.2695 293.337 20.0118Z" fill="white"/>
<path d="M273.051 9.30489C273.963 9.62445 274.918 9.86831 275.869 9.96642C278.216 10.2047 280.571 10.3841 282.926 10.5018C285.113 10.6083 287.285 10.7093 289.382 11.5502C289.938 11.7744 290.59 11.8109 291.189 11.7688C293.246 11.6287 294.949 9.78982 295.037 7.70429C295.128 5.52906 293.653 3.82756 291.412 3.51922C291.325 3.5052 291.237 3.50802 291.15 3.50241C287.748 3.25574 284.352 2.80443 280.504 3.29218C279.187 3.23611 277.441 3.1576 275.696 3.08753C274.998 3.05669 274.289 2.94177 273.604 3.03708C272.215 3.22769 271.172 4.45548 271.018 5.92712C270.867 7.36232 271.693 8.82556 273.051 9.30489Z" fill="white"/>
<path d="M317.406 14.0014C310.538 20.4291 293.902 43.2064 291.15 49.8555C291.177 49.9426 291.186 50.0533 291.24 50.1121C291.297 50.1734 291.396 50.211 291.478 50.2204C293.035 50.43 294.587 50.6843 296.148 50.8279C305.542 51.6943 314.946 51.6873 324.356 51.174C328.533 50.948 332.716 50.8609 336.897 50.7737C340.313 50.7031 343.669 51.2917 346.99 52.1323C347.669 52.3042 348.358 52.4996 348.984 52.8221C350.547 53.6321 351.392 55.0236 351.381 56.9872C351.373 58.8614 350.524 60.3918 348.768 60.9027C346.492 61.5596 344.713 63.0877 342.832 64.4745C334.735 70.4455 327.338 77.4383 319.827 84.2639C312.368 91.0378 304.473 97.1147 296.3 102.742C294.526 103.964 292.636 104.986 290.753 105.998C289.093 106.888 287.295 107.343 285.471 107.569C282.715 107.91 280.578 106.344 280.084 103.712C279.635 101.327 281.021 98.8005 283.374 97.7575C283.776 97.5785 284.229 97.3196 284.622 97.3831C286.654 97.701 288.833 96.8181 290.736 98.485C292.516 97.5527 294.272 96.7097 295.966 95.7326C304.141 91.0284 311.71 85.3093 318.627 78.5261C321.577 75.6324 324.463 72.6563 327.371 69.7085C330.603 66.4311 333.825 63.1466 337.044 59.8573C337.54 59.3511 337.992 58.7931 338.582 58.1292C337.231 57.4958 336.019 57.4275 334.819 57.4393C330.638 57.4746 326.455 57.4958 322.276 57.6512C313.393 57.9808 304.51 58.2775 295.621 58.0538C292.661 57.9785 289.698 58.0703 286.736 58.0821C285.952 58.0844 285.164 58.1386 284.387 58.0609C282.677 57.889 281.418 56.886 280.79 55.1154C280.143 53.293 280.609 51.6614 281.862 50.3217C284.959 47.0089 287.774 43.4113 290.404 39.6394C293.625 35.0222 296.739 30.3156 299.966 25.7079C303.838 20.1772 307.765 14.696 311.7 9.22179C312.406 8.23997 313.2 7.30053 314.074 6.50942C316.841 4.0019 320.272 4.67999 322.138 8.08693C322.68 9.07817 323.104 10.1707 323.453 11.2679C325.144 16.6031 326.838 21.9336 329.052 27.0358C329.71 28.5498 330.109 30.1438 329.855 31.8531C329.445 34.6079 326.846 35.9593 324.932 34.3606C324.407 33.9203 323.907 33.2163 323.728 32.5265C322.484 27.7375 320.461 23.2781 319.093 18.5456C318.667 17.074 318.217 15.6072 317.406 14.0014Z" fill="white"/>
<path d="M333.476 61.673C333.476 60.4382 333.476 59.7347 333.476 58.9887C332.686 59.1922 332.079 59.438 331.839 60.393C332.247 60.7123 332.644 61.0232 333.476 61.673ZM339.466 46.9827C340.472 46.3554 341.241 45.9372 341.953 45.4173C352.113 38.0283 362.264 30.628 372.418 23.2277C374.901 21.4165 377.372 19.5827 379.876 17.811C380.68 17.2402 381.543 16.7344 382.435 16.3699C384.122 15.6861 385.869 16.5931 386.535 18.3789C387.178 20.1026 386.638 21.9618 385.188 22.9593C384.893 23.1627 384.558 23.2927 384.245 23.465C382.997 24.1573 381.709 24.7705 380.511 25.5588C368.567 33.4169 356.45 40.9613 345 49.732C342.846 51.3822 340.701 53.0521 338.554 54.7107C338.125 58.3953 337.747 61.9669 337.848 65.7165C338.558 66.3579 339.289 67.0417 340.039 67.6973C345.608 72.5828 351.533 76.8862 357.506 81.0963C364.526 86.0383 371.364 91.2572 377.632 97.3634C378.023 97.742 378.456 98.0698 378.938 98.4767C379.672 98.197 380.385 97.8296 381.132 97.6573C383.504 97.1119 385.799 99.4374 385.395 102.102C385.007 104.662 383.655 106.541 381.49 107.567C379.979 108.282 378.572 107.928 377.347 106.761C376.82 106.258 376.356 105.662 375.905 105.069C371.976 99.9008 367.44 95.4929 362.423 91.7207C358.52 88.782 354.541 85.9649 350.562 83.1505C346.732 80.438 342.861 77.7989 339.003 75.1343C338.581 74.8433 338.13 74.6031 337.472 74.2075C337.384 75.0439 337.295 75.5864 337.277 76.1317C337.127 80.6245 337.012 85.1144 336.842 89.6043C336.755 91.8478 336.59 94.0885 336.428 96.3264C336.388 96.9028 336.312 97.5103 336.112 98.0331C335.026 100.884 331.562 101.297 329.879 98.796C329.224 97.824 328.889 96.7022 329.015 95.4957C329.23 93.4641 329.488 91.4353 329.818 89.4234C329.923 88.7792 330.209 88.0926 330.593 87.6066C331.272 86.7447 331.495 85.7727 331.642 84.6849C332.272 80.0509 332.696 75.3999 332.837 70.52C331.03 69.209 329.217 67.8753 327.387 66.5727C326.505 65.9426 325.54 65.4481 324.706 64.753C324.026 64.1822 323.345 63.5012 322.902 62.7044C321.233 59.7036 321.899 57.3188 324.74 55.8071C327.022 54.5949 329.32 53.4194 331.595 52.1903C332.451 51.7297 333.26 51.1646 334.104 50.639C334.297 48.6865 334.512 46.8527 334.657 45.0132C335.43 35.2818 336.369 25.5758 337.913 15.9574C338.22 14.036 338.587 12.1258 338.974 10.2214C339.128 9.46693 339.329 8.69839 339.642 8.01176C340.356 6.44355 341.882 5.71171 343.392 6.10447C344.844 6.4831 345.892 8.0061 345.887 9.76646C345.887 10.1536 345.824 10.5435 345.764 10.9278C344.992 15.9263 344.237 20.9276 343.418 25.9177C343.264 26.8501 343.058 27.9719 342.502 28.5766C341.594 29.5656 341.344 30.7241 341.17 31.9645C340.735 35.0501 340.348 38.147 339.947 41.2382C339.783 42.4928 339.607 43.7473 339.474 45.0076C339.42 45.5473 339.466 46.0982 339.466 46.9827Z" fill="white"/>
<path d="M196.87 34.4099C196.523 35.3435 196.567 36.0152 196.544 36.6634C196.244 45.2441 195.967 53.8315 195.645 62.4122C195.525 65.6295 195.305 68.8435 195.139 72.0575C195.094 72.9239 194.893 73.8206 195.437 74.5998C196.278 75.7987 196.229 77.1421 195.922 78.5056C195.5 80.3963 195.027 82.2737 194.607 84.1645C194.492 84.6783 194.057 85.1921 194.613 85.9142C195.889 85.8269 197.273 85.7765 198.652 85.6254C204.112 85.0343 209.564 84.3391 215.029 83.8253C221.113 83.251 227.204 83.1032 233.286 83.9495C234.28 84.0906 235.28 84.1611 236.623 84.3022C236.196 83.6708 236.026 83.3517 235.799 83.0965C234.69 81.8573 233.564 80.6315 232.442 79.4056C226.267 72.662 220.025 65.9889 214.342 58.6978C208.719 51.4873 203.461 43.9578 198.32 36.3175C197.927 35.7331 197.473 35.1991 196.87 34.4099ZM188.18 86.5254C187.884 85.6892 187.698 85.1552 187.506 84.6246C187.198 83.7682 187.231 82.9252 187.484 82.0521C189.718 74.3647 190.554 66.4254 190.598 58.3888C190.634 52.4344 190.412 46.48 190.306 40.5222C190.254 37.4963 190.189 34.4704 190.157 31.4445C190.134 29.2884 190.214 27.1457 191.258 25.1273C190.611 24.0392 189.974 22.9981 189.366 21.9369C187.907 19.3912 186.4 16.8758 185.037 14.2663C184.295 12.8457 183.764 11.2773 183.215 9.73919C182.79 8.54697 182.669 7.27749 182.888 5.99459C183.18 4.29189 184.259 3.15674 185.698 3.01569C187.143 2.87128 188.519 3.73439 189.11 5.17178C189.218 5.43374 189.335 5.72929 189.333 6.00804C189.31 9.20858 190.823 11.7676 192.141 14.3939C198.855 27.7905 206.511 40.4651 215.327 52.2531C221.731 60.8136 228.908 68.4909 236.364 75.8625C240.154 79.6105 243.941 83.3618 247.722 87.1165C248.18 87.5699 248.634 88.0334 249.042 88.5405C250.265 90.0685 250.514 91.8149 249.766 93.39C249.069 94.8609 247.424 95.8181 245.777 95.5662C244.926 95.4319 244.085 95.1128 243.27 94.7871C242.123 94.327 241.001 93.7896 239.873 93.2724C235.726 91.3816 231.395 90.3976 226.958 89.8469C222.178 89.2558 217.382 89.0711 212.602 89.4539C207.308 89.8804 202.028 90.5958 196.761 91.3615C193.225 91.8754 189.723 92.6847 186.209 93.39C185.526 93.5243 184.863 93.7829 184.187 93.9643C183.295 94.2061 182.715 94.7031 182.303 95.7308C181.601 97.4872 180.308 98.2428 179.019 97.9977C177.503 97.7089 176.255 96.1841 176.045 94.3639C175.823 92.453 176.432 90.9182 177.733 89.7058C178.972 88.5505 180.445 87.9393 181.994 87.6102C183.532 87.2811 185.094 87.1098 186.645 86.8579C187.064 86.7907 187.479 86.6799 188.18 86.5254Z" fill="white"/>
<path d="M175.616 84.2581C175.616 80.6557 175.656 77.4395 175.607 74.2233C175.526 68.8527 175.347 63.4845 175.283 58.1139C175.168 48.5429 175.021 38.9719 175.068 29.4033C175.086 25.8057 175.615 22.2151 175.894 18.6174C175.984 17.4543 176.08 16.2865 176.07 15.121C176.051 12.8372 176.587 10.6757 177.18 8.53552C177.592 7.04749 178.53 6.03506 179.884 5.6089C182.349 4.83192 184.493 6.62369 184.567 9.48203C184.593 10.4898 184.319 11.3892 183.9 12.2721C181.868 16.5525 180.87 21.1885 180.259 25.9446C179.236 33.9027 179.147 41.9033 179.433 49.9156C179.856 61.728 180.944 73.484 181.908 85.247C182.082 87.3684 182.549 89.4756 183.04 91.5405C183.473 93.3676 183.194 95.0628 182.511 96.6498C181.556 98.863 178.93 99.4963 177.122 97.9989C176.437 97.4291 175.829 96.6662 175.362 95.861C173.985 93.4924 172.617 91.1049 171.384 88.6398C165.883 77.6349 161.171 66.2157 157.239 54.3962C156.357 51.7427 155.459 49.0986 154.534 46.4639C154.358 45.9648 154.317 45.322 153.583 44.9688C153.555 45.6728 153.485 46.2967 153.512 46.916C153.793 53.3531 154.079 59.7879 154.386 66.2251C154.61 70.9035 154.854 75.5818 155.121 80.2578C155.188 81.4233 155.451 82.577 155.494 83.7425C155.529 84.6984 155.512 85.7108 155.267 86.6126C154.836 88.2019 153.525 89.2025 152.091 89.1672C150.682 89.1319 149.562 88.435 148.943 86.9681C148.494 85.9015 148.268 84.7761 148.298 83.5659C148.478 76.2458 148.613 68.9257 148.787 61.608C148.981 53.4968 148.852 45.3926 148.269 37.3073C148.003 33.6108 147.607 29.9237 147.149 26.2507C146.946 24.6214 146.596 22.9709 146.049 21.4475C144.64 17.5226 144.087 13.3575 143.185 9.29367C142.845 7.75855 142.93 6.1834 143.808 4.79661C144.634 3.49222 145.744 2.84709 147.171 3.03074C148.608 3.21203 149.575 4.13264 150.043 5.64422C150.239 6.27757 150.367 6.97214 150.377 7.64082C150.476 14.4476 151.861 20.986 153.597 27.4538C156.86 39.6124 160.445 51.6391 165.062 63.2514C167.618 69.6815 170.564 75.8808 173.791 81.9154C174.104 82.4993 174.431 83.0761 174.777 83.6389C174.863 83.7778 175.045 83.8437 175.616 84.2581Z" fill="white"/>
</svg>
