<svg width="24" height="24" viewBox="0 0 24 24" fill="none" xmlns="http://www.w3.org/2000/svg">
<path d="M8.2022 20.1417C8.04881 20.4167 8.05248 20.684 8.2132 20.9438C8.37392 21.2035 8.60706 21.3333 8.91262 21.3333C9.09595 21.3339 9.24109 21.315 9.34803 21.2765L8.2022 20.1417ZM8.2022 20.1417L10.8502 15.1666M8.2022 20.1417L10.8502 15.1666M10.8502 15.1666L11.133 15.2024L11.2272 14.4583L10.5651 14.1059L10.8502 15.1666ZM11.8893 14.8107L12.4002 13.8508L11.3214 13.7143L5.89014 13.0268L5.89014 13.0268L5.88531 13.0262C5.8302 13.0196 5.80777 13.0082 5.80225 13.0048C5.79781 13 5.78278 12.9801 5.76639 12.9278C5.75421 12.889 5.7509 12.8633 5.75018 12.8491C5.7495 12.8356 5.75095 12.8299 5.75127 12.8286C5.75158 12.8274 5.75278 12.8227 5.75873 12.8131C5.7651 12.8029 5.77876 12.7841 5.80615 12.7583L5.80617 12.7584L5.81074 12.754L15.1837 3.77063L15.1894 3.76512L15.1894 3.76509C15.1936 3.76405 15.2056 3.76127 15.2274 3.75838C15.2611 3.75392 15.3097 3.75027 15.3761 3.75C15.3969 3.75006 15.4088 3.7521 15.4138 3.75321C15.4174 3.75692 15.4256 3.76618 15.4368 3.78425C15.4401 3.78963 15.4426 3.79412 15.4445 3.79773C15.4418 3.80436 15.4375 3.81387 15.4305 3.82632L15.4269 3.83277L15.4235 3.83928L12.3985 9.52261L11.8876 10.4825L12.9663 10.6191L18.3976 11.3066L18.3976 11.3066L18.4024 11.3072C18.4575 11.3138 18.48 11.3251 18.4855 11.3286C18.4899 11.3334 18.505 11.3532 18.5213 11.4055C18.5335 11.4444 18.5368 11.47 18.5376 11.4843C18.5382 11.4977 18.5368 11.5035 18.5365 11.5047C18.5362 11.506 18.535 11.5106 18.529 11.5202C18.5226 11.5304 18.509 11.5492 18.4816 11.575L18.4816 11.575L18.477 11.5794L9.10408 20.5627L9.09833 20.5682L9.09676 20.5698C9.09671 20.5698 9.09667 20.5698 9.09663 20.5698C9.09339 20.5706 9.08243 20.5732 9.0619 20.5759C9.02936 20.5801 8.9814 20.5836 8.91512 20.5833H8.91262C8.89122 20.5833 8.87899 20.5813 8.87391 20.5801C8.8703 20.5764 8.86215 20.5672 8.85096 20.5491C8.84763 20.5437 8.84512 20.5392 8.84324 20.5356C8.84591 20.529 8.85025 20.5195 8.8572 20.507L8.8608 20.5006L8.86426 20.4941L11.8893 14.8107ZM15.1897 3.76487L15.1901 3.76445L15.195 3.7595C15.1935 3.76099 15.1917 3.76253 15.1899 3.76388C15.1891 3.76446 15.1883 3.76501 15.1875 3.7655L15.1897 3.76487Z" stroke="#00ED89" stroke-width="1.5"/>
</svg>
