<svg width="44" height="44" viewBox="0 0 44 44" fill="none" xmlns="http://www.w3.org/2000/svg">
<g clip-path="url(#clip0_793_23)">
<path d="M14.6665 9.16665C14.6665 9.65288 14.8597 10.1192 15.2035 10.463C15.5473 10.8068 16.0136 11 16.4998 11C16.9861 11 17.4524 10.8068 17.7962 10.463C18.14 10.1192 18.3332 9.65288 18.3332 9.16665C18.3332 8.68042 18.14 8.2141 17.7962 7.87028C17.4524 7.52647 16.9861 7.33331 16.4998 7.33331C16.0136 7.33331 15.5473 7.52647 15.2035 7.87028C14.8597 8.2141 14.6665 8.68042 14.6665 9.16665Z" stroke="white" stroke-width="3.66667" stroke-linecap="round" stroke-linejoin="round"/>
<path d="M14.6665 22C14.6665 22.4863 14.8597 22.9526 15.2035 23.2964C15.5473 23.6402 16.0136 23.8334 16.4998 23.8334C16.9861 23.8334 17.4524 23.6402 17.7962 23.2964C18.14 22.9526 18.3332 22.4863 18.3332 22C18.3332 21.5138 18.14 21.0475 17.7962 20.7037C17.4524 20.3598 16.9861 20.1667 16.4998 20.1667C16.0136 20.1667 15.5473 20.3598 15.2035 20.7037C14.8597 21.0475 14.6665 21.5138 14.6665 22Z" stroke="white" stroke-width="3.66667" stroke-linecap="round" stroke-linejoin="round"/>
<path d="M14.6665 34.8333C14.6665 35.3196 14.8597 35.7859 15.2035 36.1297C15.5473 36.4735 16.0136 36.6667 16.4998 36.6667C16.9861 36.6667 17.4524 36.4735 17.7962 36.1297C18.14 35.7859 18.3332 35.3196 18.3332 34.8333C18.3332 34.3471 18.14 33.8808 17.7962 33.537C17.4524 33.1932 16.9861 33 16.4998 33C16.0136 33 15.5473 33.1932 15.2035 33.537C14.8597 33.8808 14.6665 34.3471 14.6665 34.8333Z" stroke="white" stroke-width="3.66667" stroke-linecap="round" stroke-linejoin="round"/>
<path d="M25.6665 9.16665C25.6665 9.65288 25.8597 10.1192 26.2035 10.463C26.5473 10.8068 27.0136 11 27.4998 11C27.9861 11 28.4524 10.8068 28.7962 10.463C29.14 10.1192 29.3332 9.65288 29.3332 9.16665C29.3332 8.68042 29.14 8.2141 28.7962 7.87028C28.4524 7.52647 27.9861 7.33331 27.4998 7.33331C27.0136 7.33331 26.5473 7.52647 26.2035 7.87028C25.8597 8.2141 25.6665 8.68042 25.6665 9.16665Z" stroke="white" stroke-width="3.66667" stroke-linecap="round" stroke-linejoin="round"/>
<path d="M25.6665 22C25.6665 22.4863 25.8597 22.9526 26.2035 23.2964C26.5473 23.6402 27.0136 23.8334 27.4998 23.8334C27.9861 23.8334 28.4524 23.6402 28.7962 23.2964C29.14 22.9526 29.3332 22.4863 29.3332 22C29.3332 21.5138 29.14 21.0475 28.7962 20.7037C28.4524 20.3598 27.9861 20.1667 27.4998 20.1667C27.0136 20.1667 26.5473 20.3598 26.2035 20.7037C25.8597 21.0475 25.6665 21.5138 25.6665 22Z" stroke="white" stroke-width="3.66667" stroke-linecap="round" stroke-linejoin="round"/>
<path d="M25.6665 34.8333C25.6665 35.3196 25.8597 35.7859 26.2035 36.1297C26.5473 36.4735 27.0136 36.6667 27.4998 36.6667C27.9861 36.6667 28.4524 36.4735 28.7962 36.1297C29.14 35.7859 29.3332 35.3196 29.3332 34.8333C29.3332 34.3471 29.14 33.8808 28.7962 33.537C28.4524 33.1932 27.9861 33 27.4998 33C27.0136 33 26.5473 33.1932 26.2035 33.537C25.8597 33.8808 25.6665 34.3471 25.6665 34.8333Z" stroke="white" stroke-width="3.66667" stroke-linecap="round" stroke-linejoin="round"/>
</g>
<defs>
<clipPath id="clip0_793_23">
<rect width="44" height="44" fill="white"/>
</clipPath>
</defs>
</svg>
