<svg width="20" height="34" viewBox="0 0 20 34" fill="none" xmlns="http://www.w3.org/2000/svg">
<path d="M2.6665 4.16665C2.6665 4.65288 2.85966 5.11919 3.20348 5.46301C3.54729 5.80683 4.01361 5.99998 4.49984 5.99998C4.98607 5.99998 5.45238 5.80683 5.7962 5.46301C6.14002 5.11919 6.33317 4.65288 6.33317 4.16665C6.33317 3.68042 6.14002 3.2141 5.7962 2.87028C5.45238 2.52647 4.98607 2.33331 4.49984 2.33331C4.01361 2.33331 3.54729 2.52647 3.20348 2.87028C2.85966 3.2141 2.6665 3.68042 2.6665 4.16665Z" stroke="white" stroke-width="3.66667" stroke-linecap="round" stroke-linejoin="round"/>
<path d="M2.6665 17C2.6665 17.4863 2.85966 17.9526 3.20348 18.2964C3.54729 18.6402 4.01361 18.8334 4.49984 18.8334C4.98607 18.8334 5.45238 18.6402 5.7962 18.2964C6.14002 17.9526 6.33317 17.4863 6.33317 17C6.33317 16.5138 6.14002 16.0475 5.7962 15.7037C5.45238 15.3598 4.98607 15.1667 4.49984 15.1667C4.01361 15.1667 3.54729 15.3598 3.20348 15.7037C2.85966 16.0475 2.6665 16.5138 2.6665 17Z" stroke="white" stroke-width="3.66667" stroke-linecap="round" stroke-linejoin="round"/>
<path d="M2.6665 29.8333C2.6665 30.3196 2.85966 30.7859 3.20348 31.1297C3.54729 31.4735 4.01361 31.6667 4.49984 31.6667C4.98607 31.6667 5.45238 31.4735 5.7962 31.1297C6.14002 30.7859 6.33317 30.3196 6.33317 29.8333C6.33317 29.3471 6.14002 28.8808 5.7962 28.537C5.45238 28.1932 4.98607 28 4.49984 28C4.01361 28 3.54729 28.1932 3.20348 28.537C2.85966 28.8808 2.6665 29.3471 2.6665 29.8333Z" stroke="white" stroke-width="3.66667" stroke-linecap="round" stroke-linejoin="round"/>
<path d="M13.6665 4.16665C13.6665 4.65288 13.8597 5.11919 14.2035 5.46301C14.5473 5.80683 15.0136 5.99998 15.4998 5.99998C15.9861 5.99998 16.4524 5.80683 16.7962 5.46301C17.14 5.11919 17.3332 4.65288 17.3332 4.16665C17.3332 3.68042 17.14 3.2141 16.7962 2.87028C16.4524 2.52647 15.9861 2.33331 15.4998 2.33331C15.0136 2.33331 14.5473 2.52647 14.2035 2.87028C13.8597 3.2141 13.6665 3.68042 13.6665 4.16665Z" stroke="white" stroke-width="3.66667" stroke-linecap="round" stroke-linejoin="round"/>
<path d="M13.6665 17C13.6665 17.4863 13.8597 17.9526 14.2035 18.2964C14.5473 18.6402 15.0136 18.8334 15.4998 18.8334C15.9861 18.8334 16.4524 18.6402 16.7962 18.2964C17.14 17.9526 17.3332 17.4863 17.3332 17C17.3332 16.5138 17.14 16.0475 16.7962 15.7037C16.4524 15.3598 15.9861 15.1667 15.4998 15.1667C15.0136 15.1667 14.5473 15.3598 14.2035 15.7037C13.8597 16.0475 13.6665 16.5138 13.6665 17Z" stroke="white" stroke-width="3.66667" stroke-linecap="round" stroke-linejoin="round"/>
<path d="M13.6665 29.8333C13.6665 30.3196 13.8597 30.7859 14.2035 31.1297C14.5473 31.4735 15.0136 31.6667 15.4998 31.6667C15.9861 31.6667 16.4524 31.4735 16.7962 31.1297C17.14 30.7859 17.3332 30.3196 17.3332 29.8333C17.3332 29.3471 17.14 28.8808 16.7962 28.537C16.4524 28.1932 15.9861 28 15.4998 28C15.0136 28 14.5473 28.1932 14.2035 28.537C13.8597 28.8808 13.6665 29.3471 13.6665 29.8333Z" stroke="white" stroke-width="3.66667" stroke-linecap="round" stroke-linejoin="round"/>
</svg>
