<svg width="800" height="800" viewBox="0 0 800 800" fill="none" xmlns="http://www.w3.org/2000/svg">
<rect x="130" y="223" width="541" height="355" fill="white"/>
<path d="M705.82 321.298C694.031 309.006 681.842 296.298 677.237 285.162C673.004 274.933 672.748 257.99 672.501 241.602C672.04 211.105 671.518 176.541 647.488 152.512C623.459 128.482 588.895 127.96 558.398 127.499C542.01 127.252 525.067 126.996 514.838 122.763C503.705 118.158 490.994 105.969 478.702 94.1803C457.111 73.4711 432.632 50 400 50C367.368 50 342.892 73.4711 321.298 94.1803C309.006 105.969 296.298 118.158 285.162 122.763C274.933 126.996 257.99 127.252 241.602 127.499C211.105 127.96 176.541 128.482 152.512 152.512C128.482 176.541 127.96 211.105 127.499 241.602C127.252 257.99 126.996 274.933 122.763 285.162C118.158 296.295 105.969 309.006 94.1803 321.298C73.4711 342.889 50 367.368 50 400C50 432.632 73.4711 457.108 94.1803 478.702C105.969 490.994 118.158 503.702 122.763 514.838C126.996 525.067 127.252 542.01 127.499 558.398C127.96 588.895 128.482 623.459 152.512 647.488C176.541 671.518 211.105 672.04 241.602 672.501C257.99 672.748 274.933 673.004 285.162 677.237C296.295 681.842 309.006 694.031 321.298 705.82C342.889 726.529 367.368 750 400 750C432.632 750 457.108 726.529 478.702 705.82C490.994 694.031 503.702 681.842 514.838 677.237C525.067 673.004 542.01 672.748 558.398 672.501C588.895 672.04 623.459 671.518 647.488 647.488C671.518 623.459 672.04 588.895 672.501 558.398C672.748 542.01 673.004 525.067 677.237 514.838C681.842 503.705 694.031 490.994 705.82 478.702C726.529 457.111 750 432.632 750 400C750 367.368 726.529 342.892 705.82 321.298ZM554.761 343.085L371.426 518.085C366.776 522.523 360.594 525 354.166 525C347.737 525 341.555 522.523 336.905 518.085L245.239 430.585C242.863 428.318 240.956 425.606 239.629 422.603C238.301 419.599 237.578 416.364 237.501 413.081C237.423 409.798 237.994 406.532 239.179 403.47C240.364 400.407 242.141 397.608 244.409 395.233C246.676 392.858 249.389 390.952 252.393 389.625C255.397 388.298 258.632 387.577 261.915 387.501C265.198 387.425 268.464 387.996 271.526 389.183C274.588 390.369 277.386 392.147 279.761 394.415L354.166 465.439L520.239 306.915C522.614 304.647 525.412 302.869 528.474 301.683C531.536 300.496 534.802 299.925 538.085 300.001C541.368 300.077 544.603 300.798 547.607 302.125C550.611 303.452 553.324 305.358 555.591 307.733C557.858 310.108 559.636 312.907 560.821 315.97C562.006 319.032 562.577 322.298 562.499 325.581C562.422 328.864 561.699 332.099 560.371 335.103C559.044 338.106 557.137 340.818 554.761 343.085Z" fill="#0071E3"/>
<path d="M255 400.341L351.339 496.681L544 304" stroke="white" stroke-width="72.67" stroke-linecap="round" stroke-linejoin="round"/>
</svg>
