<!DOCTYPE svg PUBLIC "-//W3C//DTD SVG 1.1//EN" "http://www.w3.org/Graphics/SVG/1.1/DTD/svg11.dtd">

<!-- Uploaded to: SVG Repo, www.svgrepo.com, Transformed by: SVG Repo Mixer Tools -->
<svg fill="#00ed89" width="800px" height="800px" viewBox="0 0 256 256" id="Flat" xmlns="http://www.w3.org/2000/svg">

<g id="SVGRepo_bgCarrier" stroke-width="0"/>

<g id="SVGRepo_tracerCarrier" stroke-linecap="round" stroke-linejoin="round"/>

<g id="SVGRepo_iconCarrier"> <path d="M201.53906,54.46094a103.95314,103.95314,0,1,0,0,147.07812A104.12262,104.12262,0,0,0,201.53906,54.46094Zm-83.88281,99.88281a7.99915,7.99915,0,1,1-11.3125,11.3125l-32-32a7.99708,7.99708,0,0,1,0-11.3125l32-32a7.99915,7.99915,0,0,1,11.3125,11.3125L91.3125,128Zm56,0a7.99915,7.99915,0,1,1-11.3125,11.3125l-32-32a7.99708,7.99708,0,0,1,0-11.3125l32-32a7.99915,7.99915,0,0,1,11.3125,11.3125L147.3125,128Z"/> </g>

</svg>