<svg width="44" height="44" viewBox="0 0 44 44" fill="none" xmlns="http://www.w3.org/2000/svg">
<g clip-path="url(#clip0_829_60)">
<path d="M27.5 18.3333L35.8472 14.1606C36.1266 14.021 36.4371 13.9551 36.7492 13.9691C37.0612 13.9832 37.3645 14.0768 37.6303 14.241C37.896 14.4051 38.1154 14.6345 38.2676 14.9073C38.4199 15.1801 38.4998 15.4873 38.5 15.7996V28.2003C38.4998 28.5127 38.4199 28.8199 38.2676 29.0926C38.1154 29.3654 37.896 29.5948 37.6303 29.759C37.3645 29.9232 37.0612 30.0167 36.7492 30.0308C36.4371 30.0449 36.1266 29.9789 35.8472 29.8393L27.5 25.6666V18.3333Z" stroke="white" stroke-width="4" stroke-linecap="round" stroke-linejoin="round"/>
<path d="M5.5 14.6667C5.5 13.6942 5.88631 12.7616 6.57394 12.0739C7.26158 11.3863 8.19421 11 9.16667 11H23.8333C24.8058 11 25.7384 11.3863 26.4261 12.0739C27.1137 12.7616 27.5 13.6942 27.5 14.6667V29.3333C27.5 30.3058 27.1137 31.2384 26.4261 31.9261C25.7384 32.6137 24.8058 33 23.8333 33H9.16667C8.19421 33 7.26158 32.6137 6.57394 31.9261C5.88631 31.2384 5.5 30.3058 5.5 29.3333V14.6667Z" stroke="white" stroke-width="4" stroke-linecap="round" stroke-linejoin="round"/>
</g>
<defs>
<clipPath id="clip0_829_60">
<rect width="44" height="44" fill="white"/>
</clipPath>
</defs>
</svg>
