<svg width="21" height="20" viewBox="0 0 21 20" fill="none" xmlns="http://www.w3.org/2000/svg">
<g clip-path="url(#clip0_494_90)">
<path d="M17.85 11H14.7C12.9601 11 11.55 12.343 11.55 14V17C11.55 18.657 12.9601 20 14.7 20H17.85C19.5898 20 21 18.657 21 17V14C21 12.343 19.5898 11 17.85 11Z" fill="#6e7189"/>
<path d="M9.45 3V6C9.45 7.657 8.03985 9 6.3 9H3.15C1.41015 9 0 7.657 0 6V3C0 1.343 1.41015 0 3.15 0H6.3C8.03985 0 9.45 1.343 9.45 3Z" fill="#6e7189"/>
<path d="M17.85 0H14.7C12.9601 0 11.55 1.343 11.55 3V6C11.55 7.657 12.9601 9 14.7 9H17.85C19.5898 9 21 7.657 21 6V3C21 1.343 19.5898 0 17.85 0Z" fill="#6e7189"/>
<path d="M6.3 11H3.15C1.41015 11 0 12.343 0 14V17C0 18.657 1.41015 20 3.15 20H6.3C8.03985 20 9.45 18.657 9.45 17V14C9.45 12.343 8.03985 11 6.3 11Z" fill="#6e7189"/>
</g>
<defs>
<clipPath id="clip0_494_90">
<rect width="21" height="20" fill="white"/>
</clipPath>
</defs>
</svg>
