<svg id="visual" viewBox="0 0 960 540" width="960" height="540" xmlns="http://www.w3.org/2000/svg" xmlns:xlink="http://www.w3.org/1999/xlink" version="1.1"><path d="M618 0L615 0L615 45L404 45L404 90L484 90L484 135L481 135L481 180L361 180L361 225L660 225L660 270L459 270L459 315L357 315L357 360L553 360L553 405L451 405L451 450L582 450L582 495L666 495L666 540L0 540L0 495L0 495L0 450L0 450L0 405L0 405L0 360L0 360L0 315L0 315L0 270L0 270L0 225L0 225L0 180L0 180L0 135L0 135L0 90L0 90L0 45L0 45L0 0L0 0Z" fill="#00d77c"></path><path d="M390 0L503 0L503 45L379 45L379 90L446 90L446 135L313 135L313 180L586 180L586 225L451 225L451 270L328 270L328 315L250 315L250 360L627 360L627 405L312 405L312 450L632 450L632 495L637 495L637 540L0 540L0 495L0 495L0 450L0 450L0 405L0 405L0 360L0 360L0 315L0 315L0 270L0 270L0 225L0 225L0 180L0 180L0 135L0 135L0 90L0 90L0 45L0 45L0 0L0 0Z" fill="#41e184"></path><path d="M395 0L296 0L296 45L186 45L186 90L379 90L379 135L441 135L441 180L406 180L406 225L243 225L243 270L400 270L400 315L485 315L485 360L265 360L265 405L171 405L171 450L417 450L417 495L318 495L318 540L0 540L0 495L0 495L0 450L0 450L0 405L0 405L0 360L0 360L0 315L0 315L0 270L0 270L0 225L0 225L0 180L0 180L0 135L0 135L0 90L0 90L0 45L0 45L0 0L0 0Z" fill="#5feb8d"></path><path d="M269 0L62 0L62 45L83 45L83 90L241 90L241 135L277 135L277 180L116 180L116 225L231 225L231 270L132 270L132 315L108 315L108 360L319 360L319 405L313 405L313 450L135 450L135 495L169 495L169 540L0 540L0 495L0 495L0 450L0 450L0 405L0 405L0 360L0 360L0 315L0 315L0 270L0 270L0 225L0 225L0 180L0 180L0 135L0 135L0 90L0 90L0 45L0 45L0 0L0 0Z" fill="#78f496"></path></svg>