<svg id="visual" viewBox="0 0 960 540" width="960" height="540" xmlns="http://www.w3.org/2000/svg" xmlns:xlink="http://www.w3.org/1999/xlink" version="1.1"><path d="M0 186L137 141L274 178L411 206L549 184L686 137L823 190L960 136L960 0L823 0L686 0L549 0L411 0L274 0L137 0L0 0Z" fill="#00ed89"></path><path d="M0 119L137 166L274 177L411 127L549 147L686 162L823 162L960 151L960 0L823 0L686 0L549 0L411 0L274 0L137 0L0 0Z" fill="#00d37a"></path><path d="M0 142L137 102L274 103L411 104L549 107L686 145L823 96L960 126L960 0L823 0L686 0L549 0L411 0L274 0L137 0L0 0Z" fill="#00b96c"></path><path d="M0 55L137 54L274 71L411 95L549 89L686 56L823 73L960 94L960 0L823 0L686 0L549 0L411 0L274 0L137 0L0 0Z" fill="#00a05d"></path><path d="M0 28L137 43L274 30L411 65L549 62L686 45L823 59L960 60L960 0L823 0L686 0L549 0L411 0L274 0L137 0L0 0Z" fill="#00874f"></path></svg>