<svg width="960" height="218" viewBox="0 0 960 218" fill="none" xmlns="http://www.w3.org/2000/svg">
<path d="M0 196.333L137 148.833L274 187.889L411 217.444L549 194.222L686 144.611L823 200.556L960 143.556V0H823H686H549H411H274H137H0V196.333Z" fill="#00ED89"/>
<path d="M0 125.611L137 175.222L274 186.833L411 134.056L549 155.167L686 171H823L960 159.389V0H823H686H549H411H274H137H0V125.611Z" fill="#00D37A"/>
<path d="M0 149.889L137 107.667L274 108.722L411 109.778L549 112.944L686 153.056L823 101.333L960 133V0H823H686H549H411H274H137H0V149.889Z" fill="#00B96C"/>
<path d="M0 58.0556L137 57L274 74.9444L411 100.278L549 93.9444L686 59.1111L823 77.0556L960 99.2222V0H823H686H549H411H274H137H0V58.0556Z" fill="#00A05D"/>
<path d="M0 29.5556L137 45.3889L274 31.6667L411 68.6111L549 65.4444L686 47.5L823 62.2778L960 63.3333V0H823H686H549H411H274H137H0V29.5556Z" fill="#00874F"/>
</svg>
