<svg width="345" height="109" viewBox="0 0 345 109" fill="none" xmlns="http://www.w3.org/2000/svg">
<path d="M27.1925 38.2809C31.3892 38.5369 35.4572 38.0382 39.5328 37.7954C47.4495 37.3232 49.4446 37.0672 51.4886 36.1727C48.5598 33.629 28.1553 21.5753 24.8357 20.4282C24.6944 22.9154 26.0712 33.4893 27.1925 38.2809ZM82.0562 68.4266C81.1625 67.2462 80.1082 66.9669 79.1742 66.5745C74.0407 64.4132 68.8945 62.2851 63.7237 60.2368C53.6846 56.2599 43.4465 53.1409 32.8838 51.4651C31.7785 51.2888 30.6804 51.0794 29.5101 51.1824C29.2386 52.2132 29.4941 53.0445 29.6318 53.8858C30.4338 58.7837 31.207 63.6883 32.031 68.5796C33.2107 75.5824 34.4222 82.5784 35.6334 89.5745C35.7103 90.0168 35.9002 90.4391 36.101 91.0675C38.945 89.9603 41.6416 88.9062 44.3399 87.8555C57.3864 82.7813 69.474 75.3762 82.0562 68.4266ZM16.4547 7.48673C16.4547 6.05691 16.4078 5.09262 16.4642 4.1383C16.5879 2.04346 17.7071 0.520543 19.3497 0.114876C21.3226 -0.37392 23.0836 0.723358 23.5999 2.90465C23.842 3.9288 23.8687 5.0228 23.9343 6.09017C23.9636 6.56566 23.8515 7.05776 23.799 7.54323C23.3438 11.7695 23.3236 11.816 26.567 13.7114C36.2182 19.3541 45.8766 24.9803 55.5551 30.5599C57.798 31.8534 60.1313 32.9507 62.4252 34.1311C62.7412 34.294 63.0721 34.4204 63.3928 34.5733C64.8874 35.2816 65.8265 36.5185 65.892 38.3474C65.9624 40.3026 65.0574 41.7423 63.4863 42.4905C62.3789 43.0192 61.1826 43.4149 59.9925 43.5978C58.0977 43.8871 56.1767 44.05 54.2641 44.0866C48.1646 44.2029 42.0635 44.2329 35.9631 44.2961C35.2729 44.3027 34.5825 44.2961 33.3576 44.2961C34.0139 44.8481 34.2285 45.1672 34.4931 45.2337C50.8338 49.3237 66.6528 55.3954 82.5606 61.1246C85.7891 62.2884 88.9637 63.6384 92.1548 64.9319C92.6403 65.1281 93.1174 65.4074 93.5337 65.7499C95.5691 67.4158 95.7552 70.3985 93.9482 72.3603C93.1192 73.2581 92.1246 73.8632 90.9908 74.1359C89.8844 74.4019 88.7485 74.5416 87.6652 74.894C85.2426 75.6788 82.7991 76.4269 80.4456 77.4311C75.3204 79.6158 70.217 81.8702 65.158 84.2377C57.927 87.626 50.6418 90.8481 43.248 93.7609C42.4421 94.0768 41.6582 94.4625 40.7333 94.8748C40.8924 96.0353 41.0479 97.0761 41.1754 98.1235C41.3775 99.7761 41.487 101.422 41.0022 103.051C39.9666 106.533 36.3132 107.467 34.1389 104.721C33.403 103.79 32.9179 102.599 32.3829 101.485C31.977 100.641 31.6746 99.7362 31.337 98.8849C28.9573 99.4801 26.2762 100.717 23.2877 102.569C23.0382 103.351 22.8346 104.202 22.5032 104.987C21.287 107.86 18.9613 109.269 16.352 108.777C13.2324 108.185 11.7434 104.647 13.4614 101.668C14.0077 100.724 14.8382 99.8625 15.7111 99.2973C17.1336 98.3762 18.6634 97.6247 20.2096 96.9896C22.7418 95.9488 25.3247 95.0644 27.8832 94.1034C28.6176 93.8274 29.3428 93.5215 30.0347 93.2422C30.3563 87.4132 25.8466 56.1768 24.0461 50.2813C23.1987 50.2049 22.2596 50.1384 21.3241 50.032C18.3795 49.6928 15.4375 49.3303 12.4924 48.9978C11.2295 48.8548 10.1602 48.1965 9.1653 47.4084C7.93126 46.4308 7.3316 45.0342 7.59301 43.3384C7.84789 41.6891 8.68165 40.4456 10.1507 39.9401C10.8862 39.6874 11.6817 39.6142 12.4562 39.5477C15.5725 39.2718 18.6913 39.029 21.8938 38.7663C21.9213 38.241 22.016 37.8552 21.9492 37.5094C20.6401 30.7361 19.3129 23.9694 17.9866 17.2028C17.9124 16.8237 17.8172 16.448 17.7065 15.9625C17.1481 15.6034 16.5656 15.1878 15.9503 14.8453C12.676 13.0198 9.39614 11.2075 6.11181 9.40531C5.3362 8.97969 4.57483 8.70039 3.63128 8.77022C1.39672 8.9398 0.0873189 7.56986 0.0033487 5.25888C-0.0794346 2.97783 1.38159 1.07251 3.39331 0.839751C4.75642 0.683469 5.96464 1.20884 7.13013 1.91377C9.42878 3.307 11.7248 4.70358 14.0255 6.09017C14.7035 6.49916 15.3954 6.87823 16.4547 7.48673Z" fill="white"/>
<path d="M69.3723 24.4476C69.2967 27.7415 69.8135 31.0143 70.1013 34.2823C70.3892 37.5409 70.2358 40.8842 71.0993 44.2559C79.6293 42.1604 87.9472 39.6905 96.5339 38.8476C96.494 38.5557 96.5087 38.3932 96.4646 38.3697C87.632 33.7737 78.5305 29.8111 70.0446 24.3887C69.9249 24.311 69.7148 24.4123 69.3723 24.4476ZM115.422 84.9578C114.602 84.268 113.852 83.6087 113.079 82.9848C110.606 80.9858 108.11 79.0198 105.65 76.9997C101.333 73.4585 96.6831 70.6072 91.6302 68.6389C85.4638 66.235 79.2701 63.9205 73.0869 61.5754C72.8473 61.486 72.5826 61.4789 72.154 61.4012C72.154 62.1217 72.1183 62.7762 72.1582 63.4261C72.5763 70.2447 73.0301 77.0609 73.4209 83.8818C73.5596 86.3187 73.5554 88.765 73.6058 91.2066C73.6163 91.6917 73.6268 92.1885 73.5638 92.6664C73.3516 94.2934 72.2296 95.546 70.8304 95.7696C69.2084 96.0286 67.8134 95.2446 67.2377 93.5729C66.9625 92.7771 66.8427 91.8659 66.8427 91.0089C66.8427 88.7627 66.9162 86.5165 67.0171 84.2727C67.368 76.4629 67.3953 68.6507 67.1537 60.8362C67.1389 60.3535 67.0906 59.8708 67.0528 59.294C66.7713 59.0844 66.515 58.8184 66.2124 58.6771C63.8005 57.554 61.3969 56.405 58.9535 55.3737C57.9912 54.9688 56.9344 54.8487 55.9176 54.6062C55.4112 54.4861 54.8776 54.4508 54.3922 54.2601C52.743 53.6102 51.8879 52.1151 52.0118 50.1962C52.1295 48.3786 53.2829 46.9329 54.9511 46.5915C55.4617 46.4856 55.9953 46.5468 56.5163 46.4973C59.0333 46.2572 61.5524 46.0311 64.0652 45.7462C64.7375 45.6686 65.393 45.4002 66.0149 45.2306C66.288 42.1533 65.0821 28.0617 63.8824 20.186C63.2836 19.7221 62.5714 19.1759 61.8655 18.6179C60.441 17.4924 58.9808 16.4212 57.6173 15.211C56.8798 14.5564 56.2075 13.737 55.6907 12.8565C54.8482 11.4179 55.0078 9.64259 55.9113 8.50302C56.9597 7.1798 58.4303 6.91138 59.9494 7.83433C60.5523 8.19928 61.0902 8.69845 61.8865 9.31297C61.7856 8.61133 61.6785 8.16161 61.6596 7.70484C61.5608 5.35035 62.7206 3.50209 64.5169 3.09947C66.4582 2.66625 68.1201 3.65749 68.845 5.89425C69.7757 8.75966 70.2148 11.7404 70.0593 14.8083C70.0236 15.4841 69.9879 16.1622 69.9501 16.8944C72.7927 19.2253 75.7761 21.2314 78.8226 23.122C84.8587 26.8704 91.2562 29.6934 97.6915 32.4316C101.597 34.0916 105.448 35.9092 109.312 37.6892C110.115 38.0589 110.89 38.525 111.627 39.036C112.63 39.7305 113.26 40.7689 113.575 42.0497C114.216 44.6444 112.703 47.0977 110.323 47.2225C109.636 47.2578 108.94 47.0836 108.249 46.9918C105.572 46.6315 102.904 46.1395 100.217 45.9323C93.6471 45.4237 87.1677 46.3113 80.7597 47.9077C78.1271 48.5646 75.5114 49.311 72.8936 50.0456C72.404 50.1821 71.9418 50.4434 71.4334 50.6624C71.4103 51.1545 71.3661 51.5359 71.3851 51.9127C71.4103 52.393 71.4859 52.8709 71.5552 53.4784C72.4187 53.9187 73.2696 54.399 74.15 54.7992C80.5244 57.6882 86.8925 60.603 93.29 63.4284C99.2232 66.049 104.892 69.2393 110.331 72.9617C113.157 74.8948 116.046 76.7101 118.882 78.6219C119.924 79.3259 120.964 80.0629 121.889 80.9434C123.288 82.2761 123.96 84.0325 123.887 86.1304C123.756 89.7633 120.09 91.7293 117.58 90.4202C116.292 89.7469 115.569 88.5814 115.43 87.0015C115.373 86.3352 115.422 85.6571 115.422 84.9578Z" fill="white"/>
<path d="M111.852 45.0975C111.275 48.3477 111.054 51.6243 110.689 54.8811C110.319 58.1677 109.938 61.4576 109.521 64.7375C109.106 68.0009 108.572 71.2478 108.37 74.4516C114.523 77.7713 120.541 81.0215 126.564 84.2584C126.691 84.3246 126.885 84.2352 127.383 84.1856C121.781 71.3372 116.802 58.3166 111.852 45.0975ZM103.366 72.2871C103.58 71.5655 103.789 71.0459 103.888 70.4998C105.508 61.6032 106.839 52.6503 107.392 43.5816C107.6 40.1759 107.634 36.7536 107.665 33.338C107.673 32.3848 107.446 31.415 107.223 30.4816C106.794 28.6911 106.288 26.927 105.818 25.1497C104.416 19.8474 103.998 14.4327 104.351 8.9319C104.401 8.15411 104.351 7.36639 104.421 6.59191C104.597 4.63254 105.958 3.15638 107.674 3.01075C109.235 2.87506 110.784 4.03678 111.233 5.82404C111.467 6.75077 111.566 7.74039 111.606 8.71014C111.758 12.4104 111.86 16.1141 111.985 19.8177C112.005 20.4002 112.093 20.9893 112.064 21.5718C111.881 25.239 112.615 28.754 113.53 32.2226C118.087 49.4995 123.886 66.1938 132.093 81.7529C134.22 85.7842 136.351 89.8122 138.48 93.8434C138.657 94.181 138.857 94.5054 139.003 94.8562C139.812 96.8023 139.346 98.7849 137.8 100.033C136.356 101.201 134.316 101.069 133.005 99.6553C132.19 98.7783 131.444 97.8217 130.663 96.9082C127.568 93.2775 124 90.3119 120.145 87.8098C116.607 85.5161 112.958 83.4376 109.348 81.2829C108.901 81.0149 108.398 80.8659 107.736 80.5813C107.531 81.5411 107.284 82.352 107.193 83.1861C106.746 87.2504 106.349 91.3247 105.913 95.3924C105.841 96.061 105.742 96.7593 105.506 97.3683C104.974 98.7485 103.969 99.4601 102.629 99.4899C101.299 99.5196 100.122 98.5366 99.6485 97.0903C99.3369 96.1371 99.3724 95.1806 99.5516 94.2042C100.236 90.4807 100.917 86.7539 101.588 83.0239C101.863 81.4948 102.115 79.9624 102.356 78.4266C102.383 78.2578 102.273 78.0593 102.183 77.6985C101.254 77.2285 100.244 76.6725 99.2061 76.1992C94.4461 74.0214 89.627 72.0488 84.5339 71.0625C82.973 70.758 81.5164 70.7613 79.9632 71.4894C77.2395 72.7636 74.5206 70.2118 75.0717 66.9617C75.3107 65.5517 75.8178 64.1318 76.4702 62.8973C77.6645 60.6334 80.711 60.137 82.3507 62.2321C83.8026 64.0888 85.6367 64.6018 87.4675 65.3962C91.8483 67.296 96.2196 69.2256 100.597 71.1353C101.469 71.5159 102.351 71.8667 103.366 72.2871Z" fill="white"/>
<path d="M195.372 29.4476C195.297 32.7415 195.814 36.0143 196.101 39.2823C196.389 42.5409 196.236 45.8842 197.099 49.2559C205.629 47.1604 213.947 44.6905 222.534 43.8476C222.494 43.5557 222.509 43.3932 222.465 43.3697C213.632 38.7737 204.531 34.8111 196.045 29.3887C195.925 29.311 195.715 29.4123 195.372 29.4476ZM241.422 89.9578C240.602 89.268 239.852 88.6087 239.079 87.9848C236.606 85.9858 234.11 84.0198 231.65 81.9997C227.333 78.4585 222.683 75.6072 217.63 73.6389C211.464 71.235 205.27 68.9205 199.087 66.5754C198.847 66.486 198.583 66.4789 198.154 66.4012C198.154 67.1217 198.118 67.7762 198.158 68.4261C198.576 75.2447 199.03 82.0609 199.421 88.8818C199.56 91.3187 199.555 93.765 199.606 96.2066C199.616 96.6917 199.627 97.1885 199.564 97.6664C199.352 99.2934 198.23 100.546 196.83 100.77C195.208 101.029 193.813 100.245 193.238 98.5729C192.962 97.7771 192.843 96.8659 192.843 96.0089C192.843 93.7627 192.916 91.5165 193.017 89.2727C193.368 81.4629 193.395 73.6507 193.154 65.8362C193.139 65.3535 193.091 64.8708 193.053 64.294C192.771 64.0844 192.515 63.8184 192.212 63.6771C189.8 62.554 187.397 61.405 184.953 60.3737C183.991 59.9688 182.934 59.8487 181.918 59.6062C181.411 59.4861 180.878 59.4508 180.392 59.2601C178.743 58.6102 177.888 57.1151 178.012 55.1962C178.129 53.3786 179.283 51.9329 180.951 51.5915C181.462 51.4856 181.995 51.5468 182.516 51.4973C185.033 51.2572 187.552 51.0311 190.065 50.7463C190.738 50.6686 191.393 50.4002 192.015 50.2306C192.288 47.1533 191.082 33.0617 189.882 25.186C189.284 24.7221 188.571 24.1759 187.865 23.6179C186.441 22.4924 184.981 21.4212 183.617 20.211C182.88 19.5564 182.208 18.737 181.691 17.8565C180.848 16.4179 181.008 14.6426 181.911 13.503C182.96 12.1798 184.43 11.9114 185.949 12.8343C186.552 13.1993 187.09 13.6984 187.886 14.313C187.786 13.6113 187.678 13.1616 187.66 12.7048C187.561 10.3503 188.721 8.50209 190.517 8.09947C192.458 7.66625 194.12 8.65749 194.845 10.8942C195.776 13.7597 196.215 16.7404 196.059 19.8083C196.024 20.4841 195.988 21.1622 195.95 21.8944C198.793 24.2253 201.776 26.2314 204.823 28.122C210.859 31.8704 217.256 34.6934 223.692 37.4316C227.597 39.0916 231.448 40.9092 235.312 42.6892C236.115 43.0589 236.89 43.525 237.627 44.036C238.63 44.7305 239.26 45.7689 239.575 47.0497C240.216 49.6444 238.703 52.0977 236.323 52.2225C235.636 52.2578 234.94 52.0836 234.249 51.9918C231.572 51.6315 228.904 51.1395 226.217 50.9323C219.647 50.4237 213.168 51.3113 206.76 52.9077C204.127 53.5646 201.511 54.311 198.894 55.0456C198.404 55.1821 197.942 55.4434 197.433 55.6624C197.41 56.1545 197.366 56.5359 197.385 56.9127C197.41 57.393 197.486 57.8709 197.555 58.4784C198.419 58.9187 199.27 59.399 200.15 59.7992C206.524 62.6882 212.892 65.603 219.29 68.4284C225.223 71.049 230.892 74.2393 236.331 77.9617C239.157 79.8948 242.046 81.7101 244.882 83.6219C245.924 84.3259 246.964 85.0629 247.889 85.9434C249.288 87.2761 249.96 89.0325 249.887 91.1304C249.756 94.7633 246.09 96.7293 243.58 95.4202C242.292 94.7469 241.569 93.5814 241.43 92.0015C241.373 91.3352 241.422 90.6571 241.422 89.9578Z" fill="white"/>
<path d="M252.337 24.0118C251.738 23.6366 251.042 23.4153 250.366 23.2398C247.273 22.4409 244.113 22.3356 240.961 22.1656C240.855 22.1575 240.749 22.1548 240.643 22.1467C239.201 22.0225 237.778 21.5853 236.346 21.2911C234.969 21.0077 233.593 20.7135 232.215 20.4409C230.578 20.117 228.939 19.8147 227.301 19.4962C226.439 19.3289 225.582 19.032 224.717 19.0023C223.01 18.9402 221.598 20.1467 221.148 21.8768C220.669 23.7203 221.373 25.7392 222.974 26.6164C223.82 27.0806 224.793 27.3397 225.734 27.4801C227.557 27.7554 229.398 27.8795 231.232 28.0739C232.095 28.1629 233.003 28.0793 233.73 28.8296C234.202 29.7257 234.078 30.7216 233.986 31.6879C233.848 33.1535 233.669 34.6137 233.458 36.0685C232.331 43.8337 231.633 51.6556 231.016 59.4856C230.561 65.2615 230.135 71.0429 229.805 76.8297C229.515 81.9283 229.328 87.0376 229.196 92.1442C229.143 94.2009 229.295 96.2711 229.476 98.3251C229.569 99.3804 229.814 100.465 230.194 101.437C230.875 103.183 232.32 104.034 234.043 103.891C235.683 103.756 236.859 102.857 237.43 101.105C237.638 100.468 237.79 99.7826 237.831 99.1078C237.971 96.8271 237.611 94.6004 237.098 92.406C236.968 91.8554 236.758 91.1213 236.378 90.8811C234.922 89.9661 235.088 88.46 235.027 86.9944C234.543 75.4532 235.397 64.0011 237.084 52.638C238.261 44.7082 239.749 36.8377 241.115 28.8377L241.136 28.835C241.207 28.8431 241.28 28.8458 241.352 28.8539C242.747 28.9807 244.134 29.2425 245.518 29.4936C246.205 29.6177 246.792 29.9227 247.353 30.503C249.344 32.557 251.554 32.3519 253.262 30.0793C254.753 28.0981 254.347 25.2695 252.337 24.0118Z" fill="white"/>
<path d="M230.051 12.3049C230.963 12.6245 231.918 12.8683 232.869 12.9664C235.216 13.2047 237.571 13.3841 239.926 13.5018C242.113 13.6083 244.285 13.7093 246.382 14.5502C246.938 14.7744 247.59 14.8109 248.189 14.7688C250.246 14.6287 251.949 12.7898 252.037 10.7043C252.128 8.52906 250.653 6.82756 248.412 6.51922C248.325 6.5052 248.237 6.50802 248.15 6.50241C244.748 6.25574 241.352 5.80443 237.504 6.29218C236.187 6.23611 234.441 6.1576 232.696 6.08753C231.998 6.05669 231.289 5.94177 230.604 6.03708C229.215 6.22769 228.172 7.45548 228.018 8.92712C227.867 10.3623 228.693 11.8256 230.051 12.3049Z" fill="white"/>
<path d="M277.406 15.0014C270.538 21.4291 253.902 44.2064 251.15 50.8555C251.177 50.9426 251.186 51.0533 251.24 51.1121C251.297 51.1734 251.396 51.211 251.478 51.2204C253.035 51.43 254.587 51.6843 256.148 51.8279C265.542 52.6943 274.946 52.6873 284.356 52.174C288.533 51.948 292.716 51.8609 296.897 51.7737C300.313 51.7031 303.669 52.2917 306.99 53.1323C307.669 53.3042 308.358 53.4996 308.984 53.8221C310.547 54.6321 311.392 56.0236 311.381 57.9872C311.373 59.8614 310.524 61.3918 308.768 61.9027C306.492 62.5596 304.713 64.0877 302.832 65.4745C294.735 71.4455 287.338 78.4383 279.827 85.2639C272.368 92.0378 264.473 98.1147 256.3 103.742C254.526 104.964 252.636 105.986 250.753 106.998C249.093 107.888 247.295 108.343 245.471 108.569C242.715 108.91 240.578 107.344 240.084 104.712C239.635 102.327 241.021 99.8005 243.374 98.7575C243.776 98.5785 244.229 98.3196 244.622 98.3831C246.654 98.701 248.833 97.8181 250.736 99.485C252.516 98.5527 254.272 97.7097 255.966 96.7326C264.141 92.0284 271.71 86.3093 278.627 79.5261C281.577 76.6324 284.463 73.6563 287.371 70.7085C290.603 67.4311 293.825 64.1466 297.044 60.8573C297.54 60.3511 297.992 59.7931 298.582 59.1292C297.231 58.4958 296.019 58.4275 294.819 58.4393C290.638 58.4746 286.455 58.4958 282.276 58.6512C273.393 58.9808 264.51 59.2775 255.621 59.0538C252.661 58.9785 249.698 59.0703 246.736 59.0821C245.952 59.0844 245.164 59.1386 244.387 59.0609C242.677 58.889 241.418 57.886 240.79 56.1154C240.143 54.293 240.609 52.6614 241.862 51.3217C244.959 48.0089 247.774 44.4113 250.404 40.6394C253.625 36.0222 256.739 31.3156 259.966 26.7079C263.838 21.1772 267.765 15.696 271.7 10.2218C272.406 9.23997 273.2 8.30053 274.074 7.50942C276.841 5.0019 280.272 5.67999 282.138 9.08693C282.68 10.0782 283.104 11.1707 283.453 12.2679C285.144 17.6031 286.838 22.9336 289.052 28.0358C289.71 29.5498 290.109 31.1438 289.855 32.8531C289.445 35.6079 286.846 36.9593 284.932 35.3606C284.407 34.9203 283.907 34.2163 283.728 33.5265C282.484 28.7375 280.461 24.2781 279.093 19.5456C278.667 18.074 278.217 16.6072 277.406 15.0014Z" fill="white"/>
<path d="M291.476 58.673C291.476 57.4382 291.476 56.7347 291.476 55.9887C290.686 56.1922 290.079 56.438 289.839 57.393C290.247 57.7123 290.644 58.0232 291.476 58.673ZM297.466 43.9827C298.472 43.3554 299.241 42.9372 299.953 42.4173C310.113 35.0283 320.264 27.628 330.418 20.2277C332.901 18.4165 335.372 16.5827 337.876 14.811C338.68 14.2402 339.543 13.7344 340.435 13.3699C342.122 12.6861 343.869 13.5931 344.535 15.3789C345.178 17.1026 344.638 18.9618 343.188 19.9593C342.893 20.1627 342.558 20.2927 342.245 20.465C340.997 21.1573 339.709 21.7705 338.511 22.5588C326.567 30.4169 314.45 37.9613 303 46.732C300.846 48.3822 298.701 50.0521 296.554 51.7107C296.125 55.3953 295.747 58.9669 295.848 62.7165C296.558 63.3579 297.289 64.0417 298.039 64.6973C303.608 69.5828 309.533 73.8862 315.506 78.0963C322.526 83.0383 329.364 88.2572 335.632 94.3634C336.023 94.742 336.456 95.0698 336.938 95.4767C337.672 95.197 338.385 94.8296 339.132 94.6573C341.504 94.1119 343.799 96.4374 343.395 99.102C343.007 101.662 341.655 103.541 339.49 104.567C337.979 105.282 336.572 104.928 335.347 103.761C334.82 103.258 334.356 102.662 333.905 102.069C329.976 96.9008 325.44 92.4929 320.423 88.7207C316.52 85.782 312.541 82.9649 308.562 80.1505C304.732 77.438 300.861 74.7989 297.003 72.1343C296.581 71.8433 296.13 71.6031 295.472 71.2075C295.384 72.0439 295.295 72.5864 295.277 73.1317C295.127 77.6245 295.012 82.1144 294.842 86.6043C294.755 88.8478 294.59 91.0885 294.428 93.3264C294.388 93.9028 294.312 94.5103 294.112 95.0331C293.026 97.8841 289.562 98.2967 287.879 95.796C287.224 94.824 286.889 93.7022 287.015 92.4957C287.23 90.4641 287.488 88.4353 287.818 86.4234C287.923 85.7792 288.209 85.0926 288.593 84.6066C289.272 83.7447 289.495 82.7727 289.642 81.6849C290.272 77.0509 290.696 72.3999 290.837 67.52C289.03 66.209 287.217 64.8753 285.387 63.5727C284.505 62.9426 283.54 62.4481 282.706 61.753C282.026 61.1822 281.345 60.5012 280.902 59.7044C279.233 56.7036 279.899 54.3188 282.74 52.8071C285.022 51.5949 287.32 50.4194 289.595 49.1903C290.451 48.7297 291.26 48.1646 292.104 47.639C292.297 45.6865 292.512 43.8527 292.657 42.0132C293.43 32.2818 294.369 22.5758 295.913 12.9574C296.22 11.036 296.587 9.12584 296.974 7.22137C297.128 6.46693 297.329 5.69839 297.642 5.01176C298.356 3.44355 299.882 2.71171 301.392 3.10447C302.844 3.4831 303.892 5.0061 303.887 6.76646C303.887 7.15357 303.824 7.54349 303.764 7.92778C302.992 12.9263 302.237 17.9276 301.418 22.9177C301.264 23.8501 301.058 24.9719 300.502 25.5766C299.594 26.5656 299.344 27.7241 299.17 28.9645C298.735 32.0501 298.348 35.147 297.947 38.2382C297.783 39.4928 297.607 40.7473 297.474 42.0076C297.42 42.5473 297.466 43.0982 297.466 43.9827Z" fill="white"/>
<path d="M127.352 34.7206C128.156 34.663 128.535 34.1033 128.983 33.7081C133.835 29.3946 138.334 24.6695 142.389 19.4134C143.211 18.3473 144.133 17.3677 145.07 16.4252C145.768 15.7213 146.605 15.2686 147.571 15.1657C149.789 14.927 151.277 16.7833 150.799 19.2282C150.7 19.7303 150.572 20.2571 150.337 20.6934C149.385 22.4633 149.11 24.4637 148.801 26.4311C148.136 30.6088 147.773 34.8318 147.523 39.0671C146.998 47.9873 146.778 56.9164 146.873 65.8518C146.95 72.9234 147.178 79.9905 147.843 87.0313C148.155 90.3615 148.445 93.6947 148.724 97.0286C148.867 98.7392 149.15 100.409 149.598 102.054C149.888 103.117 150.171 104.211 150.252 105.309C150.41 107.371 148.97 108.902 147.167 108.743C145.981 108.642 145.187 107.919 144.791 106.7C144.614 106.151 144.589 105.537 144.504 104.951C144.357 103.927 144.192 102.902 144.085 101.871C144.012 101.139 143.847 100.323 144.049 99.6731C144.442 98.4194 144.353 97.1768 144.313 95.9234C144.177 91.8322 143.983 87.743 143.869 83.6509C143.696 77.3271 143.509 71.0021 143.428 64.6762C143.31 55.5944 143.259 46.5113 143.233 37.429C143.226 34.0827 143.384 30.7323 143.465 27.386C143.476 26.888 143.465 26.3941 143.465 25.9454C143.281 25.8837 143.219 25.8631 143.16 25.8425C143.16 25.8425 127.672 42.2146 127.569 42.3253C127.627 44.3693 127.66 46.5232 127.763 48.6734C127.936 52.4646 128.142 56.2542 128.355 60.0429C128.645 65.3175 128.939 70.5917 129.262 75.8643C129.368 77.6457 129.515 79.4279 129.732 81.1957C129.85 82.1432 130.088 83.0903 130.393 83.9855C130.863 85.3635 130.841 86.7716 130.683 88.1706C130.496 89.8672 129.258 91.0477 127.84 91.0551C126.349 91.0625 125.101 89.7512 124.946 87.9735C124.906 87.5339 124.965 87.0832 124.987 86.6378C125.02 85.8953 125.101 85.152 125.082 84.4115C124.847 75.1098 124.612 65.8081 124.344 56.5077C124.274 54.0533 124.102 51.6023 123.955 49.1517C123.896 48.1959 123.778 47.2447 123.697 46.4178C123.26 45.9605 122.974 46.28 122.68 46.3623C121.009 46.8303 119.76 46.2454 119.217 44.7352C118.666 43.2181 119.184 41.7223 120.565 40.7571C121.406 40.1685 122.221 39.5364 123.066 38.9107C123.095 38.4786 123.161 38.1122 123.136 37.7583C122.849 33.8275 122.5 29.9009 122.261 25.966C122.092 23.1466 122.059 20.3148 121.971 17.4871C121.96 17.1908 121.979 16.8903 122.019 16.598C122.225 15.1328 123.334 14.0338 124.623 14.0009C125.839 13.968 126.999 14.8693 127.264 16.2482C127.44 17.1784 127.44 18.1662 127.433 19.1294C127.385 23.7434 127.308 28.3574 127.253 32.9714C127.245 33.5352 127.315 34.1032 127.352 34.7206Z" fill="white"/>
<path d="M161.87 37.4099C161.523 38.3435 161.567 39.0152 161.544 39.6634C161.244 48.2441 160.967 56.8315 160.645 65.4122C160.525 68.6295 160.305 71.8435 160.139 75.0575C160.094 75.9239 159.893 76.8206 160.437 77.5998C161.278 78.7987 161.229 80.1421 160.922 81.5056C160.5 83.3963 160.027 85.2737 159.607 87.1645C159.492 87.6783 159.057 88.1921 159.613 88.9142C160.889 88.8269 162.273 88.7765 163.652 88.6254C169.112 88.0343 174.564 87.3391 180.029 86.8253C186.113 86.251 192.204 86.1032 198.286 86.9495C199.28 87.0906 200.28 87.1611 201.623 87.3022C201.196 86.6708 201.026 86.3517 200.799 86.0965C199.69 84.8573 198.564 83.6315 197.442 82.4056C191.267 75.662 185.025 68.9889 179.342 61.6978C173.719 54.4873 168.461 46.9578 163.32 39.3175C162.927 38.7331 162.473 38.1991 161.87 37.4099ZM153.18 89.5254C152.884 88.6892 152.698 88.1552 152.506 87.6246C152.198 86.7682 152.231 85.9252 152.484 85.0521C154.718 77.3647 155.554 69.4254 155.598 61.3888C155.634 55.4344 155.412 49.48 155.306 43.5222C155.254 40.4963 155.189 37.4704 155.157 34.4445C155.134 32.2884 155.214 30.1457 156.258 28.1273C155.611 27.0392 154.974 25.9981 154.366 24.9369C152.907 22.3912 151.4 19.8758 150.037 17.2663C149.295 15.8457 148.764 14.2773 148.215 12.7392C147.79 11.547 147.669 10.2775 147.888 8.99459C148.18 7.29189 149.259 6.15674 150.698 6.01569C152.143 5.87128 153.519 6.73439 154.11 8.17178C154.218 8.43374 154.335 8.72929 154.333 9.00804C154.31 12.2086 155.823 14.7676 157.141 17.3939C163.855 30.7905 171.511 43.4651 180.327 55.2531C186.731 63.8136 193.908 71.4909 201.364 78.8625C205.154 82.6105 208.941 86.3618 212.722 90.1165C213.18 90.5699 213.634 91.0334 214.042 91.5405C215.265 93.0685 215.514 94.8149 214.766 96.39C214.069 97.8609 212.424 98.8181 210.777 98.5662C209.926 98.4319 209.085 98.1128 208.27 97.7871C207.123 97.327 206.001 96.7896 204.873 96.2724C200.726 94.3816 196.395 93.3976 191.958 92.8469C187.178 92.2558 182.382 92.0711 177.602 92.4539C172.308 92.8804 167.028 93.5958 161.761 94.3615C158.225 94.8754 154.723 95.6847 151.209 96.39C150.526 96.5243 149.863 96.7829 149.187 96.9643C148.295 97.2061 147.715 97.7031 147.303 98.7308C146.601 100.487 145.308 101.243 144.019 100.998C142.503 100.709 141.255 99.1841 141.045 97.3639C140.823 95.453 141.432 93.9182 142.733 92.7058C143.972 91.5505 145.445 90.9393 146.994 90.6102C148.532 90.2811 150.094 90.1098 151.645 89.8579C152.064 89.7907 152.479 89.6799 153.18 89.5254Z" fill="white"/>
</svg>
