<svg width="345" height="109" viewBox="0 0 345 109" fill="none" xmlns="http://www.w3.org/2000/svg">
<path d="M27.1925 38.2809C31.3892 38.5369 35.4572 38.0382 39.5328 37.7954C47.4495 37.3232 49.4446 37.0672 51.4886 36.1727C48.5598 33.629 28.1553 21.5753 24.8357 20.4282C24.6944 22.9154 26.0712 33.4893 27.1925 38.2809ZM82.0562 68.4266C81.1625 67.2462 80.1082 66.9669 79.1742 66.5745C74.0407 64.4132 68.8945 62.2851 63.7237 60.2368C53.6846 56.2599 43.4465 53.1409 32.8838 51.4651C31.7785 51.2888 30.6804 51.0794 29.5101 51.1824C29.2386 52.2132 29.4941 53.0445 29.6318 53.8858C30.4338 58.7837 31.207 63.6883 32.031 68.5796C33.2107 75.5824 34.4222 82.5784 35.6334 89.5745C35.7103 90.0168 35.9002 90.4391 36.101 91.0675C38.945 89.9603 41.6416 88.9062 44.3399 87.8555C57.3864 82.7813 69.474 75.3762 82.0562 68.4266ZM16.4547 7.48673C16.4547 6.05691 16.4078 5.09262 16.4642 4.1383C16.5879 2.04346 17.7071 0.520543 19.3497 0.114876C21.3226 -0.37392 23.0836 0.723358 23.5999 2.90465C23.842 3.9288 23.8687 5.0228 23.9343 6.09017C23.9636 6.56566 23.8515 7.05776 23.799 7.54323C23.3438 11.7695 23.3236 11.816 26.567 13.7114C36.2182 19.3541 45.8766 24.9803 55.5551 30.5599C57.798 31.8534 60.1313 32.9507 62.4252 34.1311C62.7412 34.294 63.0721 34.4204 63.3928 34.5733C64.8874 35.2816 65.8265 36.5185 65.892 38.3474C65.9624 40.3026 65.0574 41.7423 63.4863 42.4905C62.3789 43.0192 61.1826 43.4149 59.9925 43.5978C58.0977 43.8871 56.1767 44.05 54.2641 44.0866C48.1646 44.2029 42.0635 44.2329 35.9631 44.2961C35.2729 44.3027 34.5825 44.2961 33.3576 44.2961C34.0139 44.8481 34.2285 45.1672 34.4931 45.2337C50.8338 49.3237 66.6528 55.3954 82.5606 61.1246C85.7891 62.2884 88.9637 63.6384 92.1548 64.9319C92.6403 65.1281 93.1174 65.4074 93.5337 65.7499C95.5691 67.4158 95.7552 70.3985 93.9482 72.3603C93.1192 73.2581 92.1246 73.8632 90.9908 74.1359C89.8844 74.4019 88.7485 74.5416 87.6652 74.894C85.2426 75.6788 82.7991 76.4269 80.4456 77.4311C75.3204 79.6158 70.217 81.8702 65.158 84.2377C57.927 87.626 50.6418 90.8481 43.248 93.7609C42.4421 94.0768 41.6582 94.4625 40.7333 94.8748C40.8924 96.0353 41.0479 97.0761 41.1754 98.1235C41.3775 99.7761 41.487 101.422 41.0022 103.051C39.9666 106.533 36.3132 107.467 34.1389 104.721C33.403 103.79 32.9179 102.599 32.3829 101.485C31.977 100.641 31.6746 99.7362 31.337 98.8849C28.9573 99.4801 26.2762 100.717 23.2877 102.569C23.0382 103.351 22.8346 104.202 22.5032 104.987C21.287 107.86 18.9613 109.269 16.352 108.777C13.2324 108.185 11.7434 104.647 13.4614 101.668C14.0077 100.724 14.8382 99.8625 15.7111 99.2973C17.1336 98.3762 18.6634 97.6247 20.2096 96.9896C22.7418 95.9488 25.3247 95.0644 27.8832 94.1034C28.6176 93.8274 29.3428 93.5215 30.0347 93.2422C30.3563 87.4132 25.8466 56.1768 24.0461 50.2813C23.1987 50.2049 22.2596 50.1384 21.3241 50.032C18.3795 49.6928 15.4375 49.3303 12.4924 48.9978C11.2295 48.8548 10.1602 48.1965 9.1653 47.4084C7.93126 46.4308 7.3316 45.0342 7.59301 43.3384C7.84789 41.6891 8.68165 40.4456 10.1507 39.9401C10.8862 39.6874 11.6817 39.6142 12.4562 39.5477C15.5725 39.2718 18.6913 39.029 21.8938 38.7663C21.9213 38.241 22.016 37.8552 21.9492 37.5094C20.6401 30.7361 19.3129 23.9694 17.9866 17.2028C17.9124 16.8237 17.8172 16.448 17.7065 15.9625C17.1481 15.6034 16.5656 15.1878 15.9503 14.8453C12.676 13.0198 9.39614 11.2075 6.11181 9.40531C5.3362 8.97969 4.57483 8.70039 3.63128 8.77022C1.39672 8.9398 0.0873189 7.56986 0.0033487 5.25888C-0.0794346 2.97783 1.38159 1.07251 3.39331 0.839751C4.75642 0.683469 5.96464 1.20884 7.13013 1.91377C9.42878 3.307 11.7248 4.70358 14.0255 6.09017C14.7035 6.49916 15.3954 6.87823 16.4547 7.48673Z" fill="white"/>
<path d="M69.3723 24.4476C69.2967 27.7415 69.8135 31.0143 70.1013 34.2823C70.3892 37.5409 70.2358 40.8842 71.0993 44.2559C79.6293 42.1604 87.9472 39.6905 96.5339 38.8476C96.494 38.5557 96.5087 38.3932 96.4646 38.3697C87.632 33.7737 78.5305 29.8111 70.0446 24.3887C69.9249 24.311 69.7148 24.4123 69.3723 24.4476ZM115.422 84.9578C114.602 84.268 113.852 83.6087 113.079 82.9848C110.606 80.9858 108.11 79.0198 105.65 76.9997C101.333 73.4585 96.6831 70.6072 91.6302 68.6389C85.4638 66.235 79.2701 63.9205 73.0869 61.5754C72.8473 61.486 72.5826 61.4789 72.154 61.4012C72.154 62.1217 72.1183 62.7762 72.1582 63.4261C72.5763 70.2447 73.0301 77.0609 73.4209 83.8818C73.5596 86.3187 73.5554 88.765 73.6058 91.2066C73.6163 91.6917 73.6268 92.1885 73.5638 92.6664C73.3516 94.2934 72.2296 95.546 70.8304 95.7696C69.2084 96.0286 67.8134 95.2446 67.2377 93.5729C66.9625 92.7771 66.8427 91.8659 66.8427 91.0089C66.8427 88.7627 66.9162 86.5165 67.0171 84.2727C67.368 76.4629 67.3953 68.6507 67.1537 60.8362C67.1389 60.3535 67.0906 59.8708 67.0528 59.294C66.7713 59.0844 66.515 58.8184 66.2124 58.6771C63.8005 57.554 61.3969 56.405 58.9535 55.3737C57.9912 54.9688 56.9344 54.8487 55.9176 54.6062C55.4112 54.4861 54.8776 54.4508 54.3922 54.2601C52.743 53.6102 51.8879 52.1151 52.0118 50.1962C52.1295 48.3786 53.2829 46.9329 54.9511 46.5915C55.4617 46.4856 55.9953 46.5468 56.5163 46.4973C59.0333 46.2572 61.5524 46.0311 64.0652 45.7462C64.7375 45.6686 65.393 45.4002 66.0149 45.2306C66.288 42.1533 65.0821 28.0617 63.8824 20.186C63.2836 19.7221 62.5714 19.1759 61.8655 18.6179C60.441 17.4924 58.9808 16.4212 57.6173 15.211C56.8798 14.5564 56.2075 13.737 55.6907 12.8565C54.8482 11.4179 55.0078 9.64259 55.9113 8.50302C56.9597 7.1798 58.4303 6.91138 59.9494 7.83433C60.5523 8.19928 61.0902 8.69845 61.8865 9.31297C61.7856 8.61133 61.6785 8.16161 61.6596 7.70484C61.5608 5.35035 62.7206 3.50209 64.5169 3.09947C66.4582 2.66625 68.1201 3.65749 68.845 5.89425C69.7757 8.75966 70.2148 11.7404 70.0593 14.8083C70.0236 15.4841 69.9879 16.1622 69.9501 16.8944C72.7927 19.2253 75.7761 21.2314 78.8226 23.122C84.8587 26.8704 91.2562 29.6934 97.6915 32.4316C101.597 34.0916 105.448 35.9092 109.312 37.6892C110.115 38.0589 110.89 38.525 111.627 39.036C112.63 39.7305 113.26 40.7689 113.575 42.0497C114.216 44.6444 112.703 47.0977 110.323 47.2225C109.636 47.2578 108.94 47.0836 108.249 46.9918C105.572 46.6315 102.904 46.1395 100.217 45.9323C93.6471 45.4237 87.1677 46.3113 80.7597 47.9077C78.1271 48.5646 75.5114 49.311 72.8936 50.0456C72.404 50.1821 71.9418 50.4434 71.4334 50.6624C71.4103 51.1545 71.3661 51.5359 71.3851 51.9127C71.4103 52.393 71.4859 52.8709 71.5552 53.4784C72.4187 53.9187 73.2696 54.399 74.15 54.7992C80.5244 57.6882 86.8925 60.603 93.29 63.4284C99.2232 66.049 104.892 69.2393 110.331 72.9617C113.157 74.8948 116.046 76.7101 118.882 78.6219C119.924 79.3259 120.964 80.0629 121.889 80.9434C123.288 82.2761 123.96 84.0325 123.887 86.1304C123.756 89.7633 120.09 91.7293 117.58 90.4202C116.292 89.7469 115.569 88.5814 115.43 87.0015C115.373 86.3352 115.422 85.6571 115.422 84.9578Z" fill="white"/>
<path d="M109.852 45.0975C109.275 48.3477 109.054 51.6243 108.689 54.8811C108.319 58.1677 107.938 61.4576 107.521 64.7375C107.106 68.0009 106.572 71.2478 106.37 74.4516C112.523 77.7713 118.541 81.0215 124.564 84.2584C124.691 84.3246 124.885 84.2352 125.383 84.1856C119.781 71.3372 114.802 58.3166 109.852 45.0975ZM101.366 72.2871C101.58 71.5655 101.789 71.0459 101.888 70.4998C103.508 61.6032 104.839 52.6503 105.392 43.5816C105.6 40.1759 105.634 36.7536 105.665 33.338C105.673 32.3848 105.446 31.415 105.223 30.4816C104.794 28.6911 104.288 26.927 103.818 25.1497C102.416 19.8474 101.998 14.4327 102.351 8.9319C102.401 8.15411 102.351 7.36639 102.421 6.59191C102.597 4.63254 103.958 3.15638 105.674 3.01075C107.235 2.87506 108.784 4.03678 109.233 5.82404C109.467 6.75077 109.566 7.74039 109.606 8.71014C109.758 12.4104 109.86 16.1141 109.985 19.8177C110.005 20.4002 110.093 20.9893 110.064 21.5718C109.881 25.239 110.615 28.754 111.53 32.2226C116.087 49.4995 121.886 66.1938 130.093 81.7529C132.22 85.7842 134.351 89.8122 136.48 93.8434C136.657 94.181 136.857 94.5054 137.003 94.8562C137.812 96.8023 137.346 98.7849 135.8 100.033C134.356 101.201 132.316 101.069 131.005 99.6553C130.19 98.7783 129.444 97.8217 128.663 96.9082C125.568 93.2775 122 90.3119 118.145 87.8098C114.607 85.5161 110.958 83.4376 107.348 81.2829C106.901 81.0149 106.398 80.8659 105.736 80.5813C105.531 81.5411 105.284 82.352 105.193 83.1861C104.746 87.2504 104.349 91.3247 103.913 95.3924C103.841 96.061 103.742 96.7593 103.506 97.3683C102.974 98.7485 101.969 99.4601 100.629 99.4899C99.2986 99.5196 98.1219 98.5366 97.6485 97.0903C97.3369 96.1371 97.3724 95.1806 97.5516 94.2042C98.2359 90.4807 98.9173 86.7539 99.588 83.0239C99.8627 81.4948 100.115 79.9624 100.356 78.4266C100.383 78.2578 100.273 78.0593 100.183 77.6985C99.254 77.2285 98.2445 76.6725 97.2061 76.1992C92.4461 74.0214 87.627 72.0488 82.5339 71.0625C80.973 70.758 79.5164 70.7613 77.9632 71.4894C75.2395 72.7636 72.5206 70.2118 73.0717 66.9617C73.3107 65.5517 73.8178 64.1318 74.4702 62.8973C75.6645 60.6334 78.711 60.137 80.3507 62.2321C81.8026 64.0888 83.6367 64.6018 85.4675 65.3962C89.8483 67.296 94.2196 69.2256 98.5971 71.1353C99.4687 71.5159 100.351 71.8667 101.366 72.2871Z" fill="white"/>
<path d="M187.372 33.4476C187.297 36.7415 187.814 40.0143 188.101 43.2823C188.389 46.5409 188.236 49.8842 189.099 53.2559C197.629 51.1604 205.947 48.6905 214.534 47.8476C214.494 47.5557 214.509 47.3932 214.465 47.3697C205.632 42.7737 196.531 38.8111 188.045 33.3887C187.925 33.311 187.715 33.4123 187.372 33.4476ZM233.422 93.9578C232.602 93.268 231.852 92.6087 231.079 91.9848C228.606 89.9858 226.11 88.0198 223.65 85.9997C219.333 82.4585 214.683 79.6072 209.63 77.6389C203.464 75.235 197.27 72.9205 191.087 70.5754C190.847 70.486 190.583 70.4789 190.154 70.4012C190.154 71.1217 190.118 71.7762 190.158 72.4261C190.576 79.2447 191.03 86.0609 191.421 92.8818C191.56 95.3187 191.555 97.765 191.606 100.207C191.616 100.692 191.627 101.188 191.564 101.666C191.352 103.293 190.23 104.546 188.83 104.77C187.208 105.029 185.813 104.245 185.238 102.573C184.962 101.777 184.843 100.866 184.843 100.009C184.843 97.7627 184.916 95.5165 185.017 93.2727C185.368 85.4629 185.395 77.6507 185.154 69.8362C185.139 69.3535 185.091 68.8708 185.053 68.294C184.771 68.0844 184.515 67.8184 184.212 67.6771C181.8 66.554 179.397 65.405 176.953 64.3737C175.991 63.9688 174.934 63.8487 173.918 63.6062C173.411 63.4861 172.878 63.4508 172.392 63.2601C170.743 62.6102 169.888 61.1151 170.012 59.1962C170.129 57.3786 171.283 55.9329 172.951 55.5915C173.462 55.4856 173.995 55.5468 174.516 55.4973C177.033 55.2572 179.552 55.0311 182.065 54.7463C182.738 54.6686 183.393 54.4002 184.015 54.2306C184.288 51.1533 183.082 37.0617 181.882 29.186C181.284 28.7221 180.571 28.1759 179.865 27.6179C178.441 26.4924 176.981 25.4212 175.617 24.211C174.88 23.5564 174.208 22.737 173.691 21.8565C172.848 20.4179 173.008 18.6426 173.911 17.503C174.96 16.1798 176.43 15.9114 177.949 16.8343C178.552 17.1993 179.09 17.6984 179.886 18.313C179.786 17.6113 179.678 17.1616 179.66 16.7048C179.561 14.3503 180.721 12.5021 182.517 12.0995C184.458 11.6662 186.12 12.6575 186.845 14.8942C187.776 17.7597 188.215 20.7404 188.059 23.8083C188.024 24.4841 187.988 25.1622 187.95 25.8944C190.793 28.2253 193.776 30.2314 196.823 32.122C202.859 35.8704 209.256 38.6934 215.692 41.4316C219.597 43.0916 223.448 44.9092 227.312 46.6892C228.115 47.0589 228.89 47.525 229.627 48.036C230.63 48.7305 231.26 49.7689 231.575 51.0497C232.216 53.6444 230.703 56.0977 228.323 56.2225C227.636 56.2578 226.94 56.0836 226.249 55.9918C223.572 55.6315 220.904 55.1395 218.217 54.9323C211.647 54.4237 205.168 55.3113 198.76 56.9077C196.127 57.5646 193.511 58.311 190.894 59.0456C190.404 59.1821 189.942 59.4434 189.433 59.6624C189.41 60.1545 189.366 60.5359 189.385 60.9127C189.41 61.393 189.486 61.8709 189.555 62.4784C190.419 62.9187 191.27 63.399 192.15 63.7992C198.524 66.6882 204.892 69.603 211.29 72.4284C217.223 75.049 222.892 78.2393 228.331 81.9617C231.157 83.8948 234.046 85.7101 236.882 87.6219C237.924 88.3259 238.964 89.0629 239.889 89.9434C241.288 91.2761 241.96 93.0325 241.887 95.1304C241.756 98.7633 238.09 100.729 235.58 99.4202C234.292 98.7469 233.569 97.5814 233.43 96.0015C233.373 95.3352 233.422 94.6571 233.422 93.9578Z" fill="white"/>
<path d="M252.337 24.0118C251.738 23.6366 251.042 23.4153 250.366 23.2398C247.273 22.4409 244.113 22.3356 240.961 22.1656C240.855 22.1575 240.749 22.1548 240.643 22.1467C239.201 22.0225 237.778 21.5853 236.346 21.2911C234.969 21.0077 233.593 20.7135 232.215 20.4409C230.578 20.117 228.939 19.8147 227.301 19.4962C226.439 19.3289 225.582 19.032 224.717 19.0023C223.01 18.9402 221.598 20.1467 221.148 21.8768C220.669 23.7203 221.373 25.7392 222.974 26.6164C223.82 27.0806 224.793 27.3397 225.734 27.4801C227.557 27.7554 229.398 27.8795 231.232 28.0739C232.095 28.1629 233.003 28.0793 233.73 28.8296C234.202 29.7257 234.078 30.7216 233.986 31.6879C233.848 33.1535 233.669 34.6137 233.458 36.0685C232.331 43.8337 231.633 51.6556 231.016 59.4856C230.561 65.2615 230.135 71.0429 229.805 76.8297C229.515 81.9283 229.328 87.0376 229.196 92.1442C229.143 94.2009 229.295 96.2711 229.476 98.3251C229.569 99.3804 229.814 100.465 230.194 101.437C230.875 103.183 232.32 104.034 234.043 103.891C235.683 103.756 236.859 102.857 237.43 101.105C237.638 100.468 237.79 99.7826 237.831 99.1078C237.971 96.8271 237.611 94.6004 237.098 92.406C236.968 91.8554 236.758 91.1213 236.378 90.8811C234.922 89.9661 235.088 88.46 235.027 86.9944C234.543 75.4532 235.397 64.0011 237.084 52.638C238.261 44.7082 239.749 36.8377 241.115 28.8377L241.136 28.835C241.207 28.8431 241.28 28.8458 241.352 28.8539C242.747 28.9807 244.134 29.2425 245.518 29.4936C246.205 29.6177 246.792 29.9227 247.353 30.503C249.344 32.557 251.554 32.3519 253.262 30.0793C254.753 28.0981 254.347 25.2695 252.337 24.0118Z" fill="white"/>
<path d="M230.051 12.3049C230.963 12.6245 231.918 12.8683 232.869 12.9664C235.216 13.2047 237.571 13.3841 239.926 13.5018C242.113 13.6083 244.285 13.7093 246.382 14.5502C246.938 14.7744 247.59 14.8109 248.189 14.7688C250.246 14.6287 251.949 12.7898 252.037 10.7043C252.128 8.52906 250.653 6.82756 248.412 6.51922C248.325 6.5052 248.237 6.50802 248.15 6.50241C244.748 6.25574 241.352 5.80443 237.504 6.29218C236.187 6.23611 234.441 6.1576 232.696 6.08753C231.998 6.05669 231.289 5.94177 230.604 6.03708C229.215 6.22769 228.172 7.45548 228.018 8.92712C227.867 10.3623 228.693 11.8256 230.051 12.3049Z" fill="white"/>
<path d="M277.406 15.0014C270.538 21.4291 253.902 44.2064 251.15 50.8555C251.177 50.9426 251.186 51.0533 251.24 51.1121C251.297 51.1734 251.396 51.211 251.478 51.2204C253.035 51.43 254.587 51.6843 256.148 51.8279C265.542 52.6943 274.946 52.6873 284.356 52.174C288.533 51.948 292.716 51.8609 296.897 51.7737C300.313 51.7031 303.669 52.2917 306.99 53.1323C307.669 53.3042 308.358 53.4996 308.984 53.8221C310.547 54.6321 311.392 56.0236 311.381 57.9872C311.373 59.8614 310.524 61.3918 308.768 61.9027C306.492 62.5596 304.713 64.0877 302.832 65.4745C294.735 71.4455 287.338 78.4383 279.827 85.2639C272.368 92.0378 264.473 98.1147 256.3 103.742C254.526 104.964 252.636 105.986 250.753 106.998C249.093 107.888 247.295 108.343 245.471 108.569C242.715 108.91 240.578 107.344 240.084 104.712C239.635 102.327 241.021 99.8005 243.374 98.7575C243.776 98.5785 244.229 98.3196 244.622 98.3831C246.654 98.701 248.833 97.8181 250.736 99.485C252.516 98.5527 254.272 97.7097 255.966 96.7326C264.141 92.0284 271.71 86.3093 278.627 79.5261C281.577 76.6324 284.463 73.6563 287.371 70.7085C290.603 67.4311 293.825 64.1466 297.044 60.8573C297.54 60.3511 297.992 59.7931 298.582 59.1292C297.231 58.4958 296.019 58.4275 294.819 58.4393C290.638 58.4746 286.455 58.4958 282.276 58.6512C273.393 58.9808 264.51 59.2775 255.621 59.0538C252.661 58.9785 249.698 59.0703 246.736 59.0821C245.952 59.0844 245.164 59.1386 244.387 59.0609C242.677 58.889 241.418 57.886 240.79 56.1154C240.143 54.293 240.609 52.6614 241.862 51.3217C244.959 48.0089 247.774 44.4113 250.404 40.6394C253.625 36.0222 256.739 31.3156 259.966 26.7079C263.838 21.1772 267.765 15.696 271.7 10.2218C272.406 9.23997 273.2 8.30053 274.074 7.50942C276.841 5.0019 280.272 5.67999 282.138 9.08693C282.68 10.0782 283.104 11.1707 283.453 12.2679C285.144 17.6031 286.838 22.9336 289.052 28.0358C289.71 29.5498 290.109 31.1438 289.855 32.8531C289.445 35.6079 286.846 36.9593 284.932 35.3606C284.407 34.9203 283.907 34.2163 283.728 33.5265C282.484 28.7375 280.461 24.2781 279.093 19.5456C278.667 18.074 278.217 16.6072 277.406 15.0014Z" fill="white"/>
<path d="M291.476 58.673C291.476 57.4382 291.476 56.7347 291.476 55.9887C290.686 56.1922 290.079 56.438 289.839 57.393C290.247 57.7123 290.644 58.0232 291.476 58.673ZM297.466 43.9827C298.472 43.3554 299.241 42.9372 299.953 42.4173C310.113 35.0283 320.264 27.628 330.418 20.2277C332.901 18.4165 335.372 16.5827 337.876 14.811C338.68 14.2402 339.543 13.7344 340.435 13.3699C342.122 12.6861 343.869 13.5931 344.535 15.3789C345.178 17.1026 344.638 18.9618 343.188 19.9593C342.893 20.1627 342.558 20.2927 342.245 20.465C340.997 21.1573 339.709 21.7705 338.511 22.5588C326.567 30.4169 314.45 37.9613 303 46.732C300.846 48.3822 298.701 50.0521 296.554 51.7107C296.125 55.3953 295.747 58.9669 295.848 62.7165C296.558 63.3579 297.289 64.0417 298.039 64.6973C303.608 69.5828 309.533 73.8862 315.506 78.0963C322.526 83.0383 329.364 88.2572 335.632 94.3634C336.023 94.742 336.456 95.0698 336.938 95.4767C337.672 95.197 338.385 94.8296 339.132 94.6573C341.504 94.1119 343.799 96.4374 343.395 99.102C343.007 101.662 341.655 103.541 339.49 104.567C337.979 105.282 336.572 104.928 335.347 103.761C334.82 103.258 334.356 102.662 333.905 102.069C329.976 96.9008 325.44 92.4929 320.423 88.7207C316.52 85.782 312.541 82.9649 308.562 80.1505C304.732 77.438 300.861 74.7989 297.003 72.1343C296.581 71.8433 296.13 71.6031 295.472 71.2075C295.384 72.0439 295.295 72.5864 295.277 73.1317C295.127 77.6245 295.012 82.1144 294.842 86.6043C294.755 88.8478 294.59 91.0885 294.428 93.3264C294.388 93.9028 294.312 94.5103 294.112 95.0331C293.026 97.8841 289.562 98.2967 287.879 95.796C287.224 94.824 286.889 93.7022 287.015 92.4957C287.23 90.4641 287.488 88.4353 287.818 86.4234C287.923 85.7792 288.209 85.0926 288.593 84.6066C289.272 83.7447 289.495 82.7727 289.642 81.6849C290.272 77.0509 290.696 72.3999 290.837 67.52C289.03 66.209 287.217 64.8753 285.387 63.5727C284.505 62.9426 283.54 62.4481 282.706 61.753C282.026 61.1822 281.345 60.5012 280.902 59.7044C279.233 56.7036 279.899 54.3188 282.74 52.8071C285.022 51.5949 287.32 50.4194 289.595 49.1903C290.451 48.7297 291.26 48.1646 292.104 47.639C292.297 45.6865 292.512 43.8527 292.657 42.0132C293.43 32.2818 294.369 22.5758 295.913 12.9574C296.22 11.036 296.587 9.12584 296.974 7.22137C297.128 6.46693 297.329 5.69839 297.642 5.01176C298.356 3.44355 299.882 2.71171 301.392 3.10447C302.844 3.4831 303.892 5.0061 303.887 6.76646C303.887 7.15357 303.824 7.54349 303.764 7.92778C302.992 12.9263 302.237 17.9276 301.418 22.9177C301.264 23.8501 301.058 24.9719 300.502 25.5766C299.594 26.5656 299.344 27.7241 299.17 28.9645C298.735 32.0501 298.348 35.147 297.947 38.2382C297.783 39.4928 297.607 40.7473 297.474 42.0076C297.42 42.5473 297.466 43.0982 297.466 43.9827Z" fill="white"/>
<path d="M127.352 34.7206C128.156 34.663 128.535 34.1033 128.983 33.7081C133.835 29.3946 138.334 24.6695 142.389 19.4134C143.211 18.3473 144.133 17.3677 145.07 16.4252C145.768 15.7213 146.605 15.2686 147.571 15.1657C149.789 14.927 151.277 16.7833 150.799 19.2282C150.7 19.7303 150.572 20.2571 150.337 20.6934C149.385 22.4633 149.11 24.4637 148.801 26.4311C148.136 30.6088 147.773 34.8318 147.523 39.0671C146.998 47.9873 146.778 56.9164 146.873 65.8518C146.95 72.9234 147.178 79.9905 147.843 87.0313C148.155 90.3615 148.445 93.6947 148.724 97.0286C148.867 98.7392 149.15 100.409 149.598 102.054C149.888 103.117 150.171 104.211 150.252 105.309C150.41 107.371 148.97 108.902 147.167 108.743C145.981 108.642 145.187 107.919 144.791 106.7C144.614 106.151 144.589 105.537 144.504 104.951C144.357 103.927 144.192 102.902 144.085 101.871C144.012 101.139 143.847 100.323 144.049 99.6731C144.442 98.4194 144.353 97.1768 144.313 95.9234C144.177 91.8322 143.983 87.743 143.869 83.6509C143.696 77.3271 143.509 71.0021 143.428 64.6762C143.31 55.5944 143.259 46.5113 143.233 37.429C143.226 34.0827 143.384 30.7323 143.465 27.386C143.476 26.888 143.465 26.3941 143.465 25.9454C143.281 25.8837 143.219 25.8631 143.16 25.8425C143.16 25.8425 127.672 42.2146 127.569 42.3253C127.627 44.3693 127.66 46.5232 127.763 48.6734C127.936 52.4646 128.142 56.2542 128.355 60.0429C128.645 65.3175 128.939 70.5917 129.262 75.8643C129.368 77.6457 129.515 79.4279 129.732 81.1957C129.85 82.1432 130.088 83.0903 130.393 83.9855C130.863 85.3635 130.841 86.7716 130.683 88.1706C130.496 89.8672 129.258 91.0477 127.84 91.0551C126.349 91.0625 125.101 89.7512 124.946 87.9735C124.906 87.5339 124.965 87.0832 124.987 86.6378C125.02 85.8953 125.101 85.152 125.082 84.4115C124.847 75.1098 124.612 65.8081 124.344 56.5077C124.274 54.0533 124.102 51.6023 123.955 49.1517C123.896 48.1959 123.778 47.2447 123.697 46.4178C123.26 45.9605 122.974 46.28 122.68 46.3623C121.009 46.8303 119.76 46.2454 119.217 44.7352C118.666 43.2181 119.184 41.7223 120.565 40.7571C121.406 40.1685 122.221 39.5364 123.066 38.9107C123.095 38.4786 123.161 38.1122 123.136 37.7583C122.849 33.8275 122.5 29.9009 122.261 25.966C122.092 23.1466 122.059 20.3148 121.971 17.4871C121.96 17.1908 121.979 16.8903 122.019 16.598C122.225 15.1328 123.334 14.0338 124.623 14.0009C125.839 13.968 126.999 14.8693 127.264 16.2482C127.44 17.1784 127.44 18.1662 127.433 19.1294C127.385 23.7434 127.308 28.3574 127.253 32.9714C127.245 33.5352 127.315 34.1032 127.352 34.7206Z" fill="white"/>
<path d="M173.196 85.3274C174.83 74.7571 174.816 64.3609 174.798 53.9686C174.795 53.6324 174.664 53.2963 174.583 52.9009C164.159 57.0333 154.307 62.3639 144.021 66.4686C143.71 66.5912 143.41 66.7533 143.11 66.9075C143.061 66.9352 143.005 66.9945 142.99 67.0499C142.98 67.1171 143.012 67.1962 143.058 67.4453C144.624 68.3034 146.29 69.1853 147.938 70.1185C149.653 71.0913 151.346 72.1037 153.044 73.1121C154.685 74.0848 156.315 75.0774 157.952 76.0581C159.646 77.0705 161.357 78.0551 163.037 79.0951C164.664 80.1035 166.248 81.1871 167.868 82.2033C169.526 83.2434 171.089 84.5048 173.196 85.3274ZM177.254 87.3283C177.812 87.4904 178.179 87.6526 178.556 87.6881C178.803 87.7079 179.061 87.534 179.318 87.4628C180.398 87.1741 181.305 87.5339 181.958 88.5226C182.597 89.4874 182.695 90.5907 182.261 91.694C181.697 93.1335 180.642 93.8176 179.269 93.8808C178.814 93.9046 178.355 93.778 177.66 93.691C177.318 94.1379 176.947 94.7745 176.446 95.2293C175.095 96.4591 173.161 96.1665 172.212 94.6757C171.806 94.039 171.658 93.3272 171.718 92.564C171.763 91.9788 171.855 91.4014 171.94 90.7489C170.415 89.6337 168.902 88.57 167.43 87.443C161.05 82.5474 154.169 78.6918 147.126 75.1802C144.889 74.0611 142.563 73.1674 140.273 72.1748C139.532 71.8506 138.77 71.5777 138.05 71.2021C137.454 70.8936 136.847 70.5417 136.346 70.075C134.398 68.2481 134.585 65.1122 136.773 63.6807C137.673 63.0875 138.707 62.6921 139.723 62.3876C141.706 61.7825 143.724 61.3318 145.722 60.7702C149.596 59.6867 153.291 58.0298 156.915 56.1751C160.115 54.542 163.302 52.8732 166.46 51.1411C169.262 49.6068 172.106 48.1278 174.519 45.4151C174.519 45.0196 174.569 44.3592 174.512 43.7068C174.082 38.7479 173.683 33.7811 173.168 28.834C172.822 25.5123 172.3 22.2103 171.866 18.9005C171.816 18.5366 171.792 18.157 171.823 17.7893C171.943 16.4171 172.903 15.2782 174.099 15.0409C175.267 14.8116 176.495 15.5629 176.989 16.8758C177.169 17.3503 177.286 17.8723 177.325 18.3824C177.473 20.4546 177.649 22.5346 177.688 24.6146C177.78 29.3758 177.688 34.1449 177.872 38.9021C178.232 48.203 178.359 57.5038 178.15 66.8047C178.041 71.7122 177.741 76.6157 177.526 81.5232C177.441 83.3778 177.353 85.2285 177.254 87.3283Z" fill="white"/>
</svg>
