<svg width="522" height="114" viewBox="0 0 522 114" fill="none" xmlns="http://www.w3.org/2000/svg">
<path d="M27.1925 38.2809C31.3892 38.5369 35.4572 38.0382 39.5328 37.7954C47.4495 37.3232 49.4446 37.0672 51.4886 36.1727C48.5598 33.629 28.1553 21.5753 24.8357 20.4282C24.6944 22.9154 26.0712 33.4893 27.1925 38.2809ZM82.0562 68.4266C81.1625 67.2462 80.1082 66.9669 79.1742 66.5745C74.0407 64.4132 68.8945 62.2851 63.7237 60.2368C53.6846 56.2599 43.4465 53.1409 32.8838 51.4651C31.7785 51.2888 30.6804 51.0794 29.5101 51.1824C29.2386 52.2132 29.4941 53.0445 29.6318 53.8858C30.4338 58.7837 31.207 63.6883 32.031 68.5796C33.2107 75.5824 34.4222 82.5784 35.6334 89.5745C35.7103 90.0168 35.9002 90.4391 36.101 91.0675C38.945 89.9603 41.6416 88.9062 44.3399 87.8555C57.3864 82.7813 69.474 75.3762 82.0562 68.4266ZM16.4547 7.48673C16.4547 6.05691 16.4078 5.09262 16.4642 4.1383C16.5879 2.04346 17.7071 0.520543 19.3497 0.114876C21.3226 -0.37392 23.0836 0.723358 23.5999 2.90465C23.842 3.9288 23.8687 5.0228 23.9343 6.09017C23.9636 6.56566 23.8515 7.05776 23.799 7.54323C23.3438 11.7695 23.3236 11.816 26.567 13.7114C36.2182 19.3541 45.8766 24.9803 55.5551 30.5599C57.798 31.8534 60.1313 32.9507 62.4252 34.1311C62.7412 34.294 63.0721 34.4204 63.3928 34.5733C64.8874 35.2816 65.8265 36.5185 65.892 38.3474C65.9624 40.3026 65.0574 41.7423 63.4863 42.4905C62.3789 43.0192 61.1826 43.4149 59.9925 43.5978C58.0977 43.8871 56.1767 44.05 54.2641 44.0866C48.1646 44.2029 42.0635 44.2329 35.9631 44.2961C35.2729 44.3027 34.5825 44.2961 33.3576 44.2961C34.0139 44.8481 34.2285 45.1672 34.4931 45.2337C50.8338 49.3237 66.6528 55.3954 82.5606 61.1246C85.7891 62.2884 88.9637 63.6384 92.1548 64.9319C92.6403 65.1281 93.1174 65.4074 93.5337 65.7499C95.5691 67.4158 95.7552 70.3985 93.9482 72.3603C93.1192 73.2581 92.1246 73.8632 90.9908 74.1359C89.8844 74.4019 88.7485 74.5416 87.6652 74.894C85.2426 75.6788 82.7991 76.4269 80.4456 77.4311C75.3204 79.6158 70.217 81.8702 65.158 84.2377C57.927 87.626 50.6418 90.8481 43.248 93.7609C42.4421 94.0768 41.6582 94.4625 40.7333 94.8748C40.8924 96.0353 41.0479 97.0761 41.1754 98.1235C41.3775 99.7761 41.487 101.422 41.0022 103.051C39.9666 106.533 36.3132 107.467 34.1389 104.721C33.403 103.79 32.9179 102.599 32.3829 101.485C31.977 100.641 31.6746 99.7362 31.337 98.8849C28.9573 99.4801 26.2762 100.717 23.2877 102.569C23.0382 103.351 22.8346 104.202 22.5032 104.987C21.287 107.86 18.9613 109.269 16.352 108.777C13.2324 108.185 11.7434 104.647 13.4614 101.668C14.0077 100.724 14.8382 99.8625 15.7111 99.2973C17.1336 98.3762 18.6634 97.6247 20.2096 96.9896C22.7418 95.9488 25.3247 95.0644 27.8832 94.1034C28.6176 93.8274 29.3428 93.5215 30.0347 93.2422C30.3563 87.4132 25.8466 56.1768 24.0461 50.2813C23.1987 50.2049 22.2596 50.1384 21.3241 50.032C18.3795 49.6928 15.4375 49.3303 12.4924 48.9978C11.2295 48.8548 10.1602 48.1965 9.1653 47.4084C7.93126 46.4308 7.3316 45.0342 7.59301 43.3384C7.84789 41.6891 8.68165 40.4456 10.1507 39.9401C10.8862 39.6874 11.6817 39.6142 12.4562 39.5477C15.5725 39.2718 18.6913 39.029 21.8938 38.7663C21.9213 38.241 22.016 37.8552 21.9492 37.5094C20.6401 30.7361 19.3129 23.9694 17.9866 17.2028C17.9124 16.8237 17.8172 16.448 17.7065 15.9625C17.1481 15.6034 16.5656 15.1878 15.9503 14.8453C12.676 13.0198 9.39614 11.2075 6.11181 9.40531C5.3362 8.97969 4.57483 8.70039 3.63128 8.77022C1.39672 8.9398 0.0873189 7.56986 0.0033487 5.25888C-0.0794346 2.97783 1.38159 1.07251 3.39331 0.839751C4.75642 0.683469 5.96464 1.20884 7.13013 1.91377C9.42878 3.307 11.7248 4.70358 14.0255 6.09017C14.7035 6.49916 15.3954 6.87823 16.4547 7.48673Z" fill="white"/>
<path d="M184.924 51.9156C184.233 51.6106 183.993 52.1976 183.68 52.5091C180.383 55.8439 177.091 59.1853 173.814 62.5529C169.466 67.0222 165.132 71.5146 160.802 76.0069C160.5 76.3217 159.994 76.5217 160.091 77.2562C160.386 77.1808 160.632 77.1218 160.878 77.0529C166.475 75.5052 172.067 73.9476 177.661 72.4032C181.653 71.3047 185.655 70.2554 189.796 70.157C189.977 70.1538 190.153 70.016 190.445 69.8947C190.372 69.4553 190.34 69.0225 190.229 68.6159C188.681 62.9365 186.858 57.3654 184.924 51.9156ZM192.142 77.1251C191.671 77.0136 191.326 76.9873 191.028 76.8463C189.044 75.9118 186.998 76.0626 184.944 76.3545C180.058 77.0464 175.312 78.4859 170.551 79.827C164.24 81.6075 158.04 83.7783 152.073 86.7426C151.049 87.2541 149.949 87.5853 148.875 87.9624C148.223 88.1886 147.564 88.1099 146.921 87.841C145.06 87.0705 144.401 84.6735 145.616 82.9159C145.976 82.3945 146.458 81.9617 146.941 81.5813C156.041 74.3903 164.219 66.009 172.114 57.2539C175.37 53.6404 178.607 50.0006 181.849 46.3739C182.08 46.1116 182.302 45.8427 182.601 45.4886C179.841 37.7762 176.851 30.2049 173.395 22.5384C171.669 26.0536 169.627 28.8834 167.57 31.7034C166.856 32.6839 166.066 33.5954 165.369 34.589C164.588 35.694 163.871 36.8548 163.128 37.9959C162.894 38.3566 162.707 38.7632 162.434 39.078C161.615 40.0093 160.454 40.0978 159.535 39.3502C158.718 38.6846 158.394 37.4319 158.806 36.3531C158.961 35.9531 159.228 35.6055 159.459 35.2448C159.997 34.3988 160.571 33.5758 161.083 32.7101C162.666 30.0442 164.175 27.3291 165.805 24.7059C167.338 22.2335 168.524 19.6036 169.261 16.7115C169.425 16.0688 169.627 15.436 169.849 14.8162C170.273 13.6554 171.043 12.8652 172.055 12.3602C173.688 11.547 175.122 12.1208 175.818 13.9801C176.459 15.6917 176.994 17.4559 177.574 19.197C177.802 19.8955 177.986 20.6136 178.255 21.2924C183.373 34.2185 187.733 47.4823 192.233 60.6871C194.337 66.8747 196.236 73.1443 197.971 79.4729C198.223 80.3943 198.574 81.2796 198.878 82.1847C198.995 82.5322 199.133 82.8732 199.218 83.2307C199.607 84.844 198.925 86.4868 197.614 87.1229C196.362 87.7295 194.776 87.3229 194.1 85.9588C193.304 84.3455 192.54 82.6306 192.672 80.7025C192.757 79.4729 192.57 78.3514 192.142 77.1251Z" fill="white"/>
<path d="M96.3723 25.4476C96.2967 28.7415 96.8135 32.0143 97.1013 35.2823C97.3892 38.5409 97.2358 41.8842 98.0993 45.2559C106.629 43.1604 114.947 40.6905 123.534 39.8476C123.494 39.5557 123.509 39.3932 123.465 39.3697C114.632 34.7737 105.531 30.8111 97.0446 25.3887C96.9249 25.311 96.7148 25.4123 96.3723 25.4476ZM142.422 85.9578C141.602 85.268 140.852 84.6087 140.079 83.9848C137.606 81.9858 135.11 80.0198 132.65 77.9997C128.333 74.4585 123.683 71.6072 118.63 69.6389C112.464 67.235 106.27 64.9205 100.087 62.5754C99.8473 62.486 99.5826 62.4789 99.154 62.4012C99.154 63.1217 99.1183 63.7762 99.1582 64.4261C99.5763 71.2447 100.03 78.0609 100.421 84.8818C100.56 87.3187 100.555 89.765 100.606 92.2066C100.616 92.6917 100.627 93.1885 100.564 93.6664C100.352 95.2934 99.2296 96.546 97.8304 96.7696C96.2084 97.0286 94.8134 96.2446 94.2377 94.5729C93.9625 93.7771 93.8427 92.8659 93.8427 92.0089C93.8427 89.7627 93.9162 87.5165 94.0171 85.2727C94.368 77.4629 94.3953 69.6507 94.1537 61.8362C94.139 61.3535 94.0906 60.8708 94.0528 60.294C93.7713 60.0844 93.515 59.8184 93.2124 59.6771C90.8005 58.554 88.3969 57.405 85.9535 56.3737C84.9912 55.9688 83.9344 55.8487 82.9176 55.6062C82.4112 55.4861 81.8776 55.4508 81.3922 55.2601C79.743 54.6102 78.8879 53.1151 79.0118 51.1962C79.1295 49.3786 80.2829 47.9329 81.9511 47.5915C82.4617 47.4856 82.9953 47.5468 83.5163 47.4973C86.0333 47.2572 88.5524 47.0311 91.0652 46.7463C91.7375 46.6686 92.393 46.4002 93.0149 46.2306C93.288 43.1533 92.0821 29.0617 90.8824 21.186C90.2836 20.7221 89.5714 20.1759 88.8655 19.6179C87.441 18.4924 85.9808 17.4212 84.6173 16.211C83.8798 15.5564 83.2075 14.737 82.6907 13.8565C81.8482 12.4179 82.0078 10.6426 82.9113 9.50301C83.9597 8.17979 85.4303 7.91138 86.9494 8.83434C87.5523 9.19928 88.0902 9.69844 88.8865 10.313C88.7856 9.61133 88.6785 9.1616 88.6596 8.70483C88.5608 6.35035 89.7206 4.50209 91.5169 4.09947C93.4582 3.66625 95.1201 4.65749 95.845 6.89425C96.7757 9.75966 97.2148 12.7404 97.0593 15.8083C97.0236 16.4841 96.9879 17.1622 96.9501 17.8944C99.7927 20.2253 102.776 22.2314 105.823 24.122C111.859 27.8704 118.256 30.6934 124.692 33.4316C128.597 35.0916 132.448 36.9092 136.312 38.6892C137.115 39.0589 137.89 39.525 138.627 40.036C139.63 40.7305 140.26 41.7689 140.575 43.0497C141.216 45.6444 139.703 48.0977 137.323 48.2225C136.636 48.2578 135.94 48.0836 135.249 47.9918C132.572 47.6315 129.904 47.1395 127.217 46.9323C120.647 46.4237 114.168 47.3113 107.76 48.9077C105.127 49.5646 102.511 50.311 99.8936 51.0456C99.404 51.1821 98.9418 51.4434 98.4334 51.6624C98.4103 52.1545 98.3662 52.5359 98.3851 52.9127C98.4103 53.393 98.4859 53.8709 98.5552 54.4784C99.4187 54.9187 100.27 55.399 101.15 55.7992C107.524 58.6882 113.892 61.603 120.29 64.4284C126.223 67.049 131.892 70.2393 137.331 73.9617C140.157 75.8948 143.046 77.7101 145.882 79.6219C146.924 80.3259 147.964 81.0629 148.889 81.9434C150.288 83.2761 150.96 85.0325 150.887 87.1304C150.756 90.7633 147.09 92.7293 144.58 91.4202C143.292 90.7469 142.569 89.5814 142.43 88.0015C142.373 87.3352 142.422 86.6571 142.422 85.9578Z" fill="white"/>
<path d="M313.372 27.4476C313.297 30.7415 313.814 34.0143 314.101 37.2823C314.389 40.5409 314.236 43.8842 315.099 47.2559C323.629 45.1604 331.947 42.6905 340.534 41.8476C340.494 41.5557 340.509 41.3932 340.465 41.3697C331.632 36.7737 322.531 32.8111 314.045 27.3887C313.925 27.311 313.715 27.4123 313.372 27.4476ZM359.422 87.9578C358.602 87.268 357.852 86.6087 357.079 85.9848C354.606 83.9858 352.11 82.0198 349.65 79.9997C345.333 76.4585 340.683 73.6072 335.63 71.6389C329.464 69.235 323.27 66.9205 317.087 64.5754C316.847 64.486 316.583 64.4789 316.154 64.4012C316.154 65.1217 316.118 65.7762 316.158 66.4261C316.576 73.2447 317.03 80.0609 317.421 86.8818C317.56 89.3187 317.555 91.765 317.606 94.2066C317.616 94.6917 317.627 95.1885 317.564 95.6664C317.352 97.2934 316.23 98.546 314.83 98.7696C313.208 99.0286 311.813 98.2446 311.238 96.5729C310.962 95.7771 310.843 94.8659 310.843 94.0089C310.843 91.7627 310.916 89.5165 311.017 87.2727C311.368 79.4629 311.395 71.6507 311.154 63.8362C311.139 63.3535 311.091 62.8708 311.053 62.294C310.771 62.0844 310.515 61.8184 310.212 61.6771C307.8 60.554 305.397 59.405 302.953 58.3737C301.991 57.9688 300.934 57.8487 299.918 57.6062C299.411 57.4861 298.878 57.4508 298.392 57.2601C296.743 56.6102 295.888 55.1151 296.012 53.1962C296.129 51.3786 297.283 49.9329 298.951 49.5915C299.462 49.4856 299.995 49.5468 300.516 49.4973C303.033 49.2572 305.552 49.0311 308.065 48.7463C308.738 48.6686 309.393 48.4002 310.015 48.2306C310.288 45.1533 309.082 31.0617 307.882 23.186C307.284 22.7221 306.571 22.1759 305.865 21.6179C304.441 20.4924 302.981 19.4212 301.617 18.211C300.88 17.5564 300.208 16.737 299.691 15.8565C298.848 14.4179 299.008 12.6426 299.911 11.503C300.96 10.1798 302.43 9.91138 303.949 10.8343C304.552 11.1993 305.09 11.6984 305.886 12.313C305.786 11.6113 305.678 11.1616 305.66 10.7048C305.561 8.35035 306.721 6.50209 308.517 6.09947C310.458 5.66625 312.12 6.65749 312.845 8.89425C313.776 11.7597 314.215 14.7404 314.059 17.8083C314.024 18.4841 313.988 19.1622 313.95 19.8944C316.793 22.2253 319.776 24.2314 322.823 26.122C328.859 29.8704 335.256 32.6934 341.692 35.4316C345.597 37.0916 349.448 38.9092 353.312 40.6892C354.115 41.0589 354.89 41.525 355.627 42.036C356.63 42.7305 357.26 43.7689 357.575 45.0497C358.216 47.6444 356.703 50.0977 354.323 50.2225C353.636 50.2578 352.94 50.0836 352.249 49.9918C349.572 49.6315 346.904 49.1395 344.217 48.9323C337.647 48.4237 331.168 49.3113 324.76 50.9077C322.127 51.5646 319.511 52.311 316.894 53.0456C316.404 53.1821 315.942 53.4434 315.433 53.6624C315.41 54.1545 315.366 54.5359 315.385 54.9127C315.41 55.393 315.486 55.8709 315.555 56.4784C316.419 56.9187 317.27 57.399 318.15 57.7992C324.524 60.6882 330.892 63.603 337.29 66.4284C343.223 69.049 348.892 72.2393 354.331 75.9617C357.157 77.8948 360.046 79.7101 362.882 81.6219C363.924 82.3259 364.964 83.0629 365.889 83.9434C367.288 85.2761 367.96 87.0325 367.887 89.1304C367.756 92.7633 364.09 94.7293 361.58 93.4202C360.292 92.7469 359.569 91.5814 359.43 90.0015C359.373 89.3352 359.422 88.6571 359.422 87.9578Z" fill="white"/>
<path d="M395.337 22.0118C394.738 21.6366 394.042 21.4153 393.366 21.2398C390.273 20.4409 387.113 20.3356 383.961 20.1656C383.855 20.1575 383.749 20.1548 383.643 20.1467C382.201 20.0225 380.778 19.5853 379.346 19.2911C377.969 19.0077 376.593 18.7135 375.215 18.4409C373.578 18.117 371.939 17.8147 370.301 17.4962C369.439 17.3289 368.582 17.032 367.717 17.0023C366.01 16.9402 364.598 18.1467 364.148 19.8768C363.669 21.7203 364.373 23.7392 365.974 24.6164C366.82 25.0806 367.793 25.3397 368.734 25.4801C370.557 25.7554 372.398 25.8795 374.232 26.0739C375.095 26.1629 376.003 26.0793 376.73 26.8296C377.202 27.7257 377.078 28.7216 376.986 29.6879C376.848 31.1535 376.669 32.6137 376.458 34.0685C375.331 41.8337 374.633 49.6556 374.016 57.4856C373.561 63.2615 373.135 69.0429 372.805 74.8297C372.515 79.9283 372.328 85.0376 372.196 90.1442C372.143 92.2009 372.295 94.2711 372.476 96.3251C372.569 97.3804 372.814 98.4654 373.194 99.4371C373.875 101.183 375.32 102.034 377.043 101.891C378.683 101.756 379.859 100.857 380.43 99.1051C380.638 98.4681 380.79 97.7826 380.831 97.1078C380.971 94.8271 380.611 92.6004 380.098 90.406C379.968 89.8554 379.758 89.1213 379.378 88.8811C377.922 87.9661 378.088 86.46 378.027 84.9944C377.543 73.4532 378.397 62.0011 380.084 50.638C381.261 42.7082 382.749 34.8377 384.115 26.8377L384.136 26.835C384.207 26.8431 384.28 26.8458 384.352 26.8539C385.747 26.9807 387.134 27.2425 388.518 27.4936C389.205 27.6177 389.792 27.9227 390.353 28.503C392.344 30.557 394.554 30.3519 396.262 28.0793C397.753 26.0981 397.347 23.2695 395.337 22.0118Z" fill="white"/>
<path d="M375.051 8.30489C375.963 8.62445 376.918 8.86831 377.869 8.96642C380.216 9.20469 382.571 9.38408 384.926 9.50181C387.113 9.60833 389.285 9.70925 391.382 10.5502C391.938 10.7744 392.59 10.8109 393.189 10.7688C395.246 10.6287 396.949 8.78982 397.037 6.70429C397.128 4.52906 395.653 2.82756 393.412 2.51922C393.325 2.5052 393.237 2.50802 393.15 2.50241C389.748 2.25574 386.352 1.80443 382.504 2.29218C381.187 2.23611 379.441 2.1576 377.696 2.08753C376.998 2.05669 376.289 1.94177 375.604 2.03708C374.215 2.22769 373.172 3.45548 373.018 4.92712C372.867 6.36232 373.693 7.82556 375.051 8.30489Z" fill="white"/>
<path d="M422.406 15.0014C415.538 21.4291 398.902 44.2064 396.15 50.8555C396.177 50.9426 396.186 51.0533 396.24 51.1121C396.297 51.1734 396.396 51.211 396.478 51.2204C398.035 51.43 399.587 51.6843 401.148 51.8279C410.542 52.6943 419.946 52.6873 429.356 52.174C433.533 51.948 437.716 51.8609 441.897 51.7737C445.313 51.7031 448.669 52.2917 451.99 53.1323C452.669 53.3042 453.358 53.4996 453.984 53.8221C455.547 54.6321 456.392 56.0236 456.381 57.9872C456.373 59.8614 455.524 61.3918 453.768 61.9027C451.492 62.5596 449.713 64.0877 447.832 65.4745C439.735 71.4455 432.338 78.4383 424.827 85.2639C417.368 92.0378 409.473 98.1147 401.3 103.742C399.526 104.964 397.636 105.986 395.753 106.998C394.093 107.888 392.295 108.343 390.471 108.569C387.715 108.91 385.578 107.344 385.084 104.712C384.635 102.327 386.021 99.8005 388.374 98.7575C388.776 98.5785 389.229 98.3196 389.622 98.3831C391.654 98.701 393.833 97.8181 395.736 99.485C397.516 98.5527 399.272 97.7097 400.966 96.7326C409.141 92.0284 416.71 86.3093 423.627 79.5261C426.577 76.6324 429.463 73.6563 432.371 70.7085C435.603 67.4311 438.825 64.1466 442.044 60.8573C442.54 60.3511 442.992 59.7931 443.582 59.1292C442.231 58.4958 441.019 58.4275 439.819 58.4393C435.638 58.4746 431.455 58.4958 427.276 58.6512C418.393 58.9808 409.51 59.2775 400.621 59.0538C397.661 58.9785 394.698 59.0703 391.736 59.0821C390.952 59.0844 390.164 59.1386 389.387 59.0609C387.677 58.889 386.418 57.886 385.79 56.1154C385.143 54.293 385.609 52.6614 386.862 51.3217C389.959 48.0089 392.774 44.4113 395.404 40.6394C398.625 36.0222 401.739 31.3156 404.966 26.7079C408.838 21.1772 412.765 15.696 416.7 10.2218C417.406 9.23997 418.2 8.30053 419.074 7.50942C421.841 5.0019 425.272 5.67999 427.138 9.08693C427.68 10.0782 428.104 11.1707 428.453 12.2679C430.144 17.6031 431.838 22.9336 434.052 28.0358C434.71 29.5498 435.109 31.1438 434.855 32.8531C434.445 35.6079 431.846 36.9593 429.932 35.3606C429.407 34.9203 428.907 34.2163 428.728 33.5265C427.484 28.7375 425.461 24.2781 424.093 19.5456C423.667 18.074 423.217 16.6072 422.406 15.0014Z" fill="white"/>
<path d="M468.476 67.673C468.476 66.4382 468.476 65.7347 468.476 64.9887C467.686 65.1922 467.079 65.438 466.839 66.393C467.247 66.7123 467.644 67.0232 468.476 67.673ZM474.466 52.9827C475.472 52.3554 476.241 51.9372 476.953 51.4173C487.113 44.0283 497.264 36.628 507.418 29.2277C509.901 27.4165 512.372 25.5827 514.876 23.811C515.68 23.2402 516.543 22.7344 517.435 22.3699C519.122 21.6861 520.869 22.5931 521.535 24.3789C522.178 26.1026 521.638 27.9618 520.188 28.9593C519.893 29.1627 519.558 29.2927 519.245 29.465C517.997 30.1573 516.709 30.7705 515.511 31.5588C503.567 39.4169 491.45 46.9613 480 55.732C477.846 57.3822 475.701 59.0521 473.554 60.7107C473.125 64.3953 472.747 67.9669 472.848 71.7165C473.558 72.3579 474.289 73.0417 475.039 73.6973C480.608 78.5828 486.533 82.8862 492.506 87.0963C499.526 92.0383 506.364 97.2572 512.632 103.363C513.023 103.742 513.456 104.07 513.938 104.477C514.672 104.197 515.385 103.83 516.132 103.657C518.504 103.112 520.799 105.437 520.395 108.102C520.007 110.662 518.655 112.541 516.49 113.567C514.979 114.282 513.572 113.928 512.347 112.761C511.82 112.258 511.356 111.662 510.905 111.069C506.976 105.901 502.44 101.493 497.423 97.7207C493.52 94.782 489.541 91.9649 485.562 89.1505C481.732 86.438 477.861 83.7989 474.003 81.1343C473.581 80.8433 473.13 80.6031 472.472 80.2075C472.384 81.0439 472.295 81.5864 472.277 82.1317C472.127 86.6245 472.012 91.1144 471.842 95.6043C471.755 97.8478 471.59 100.089 471.428 102.326C471.388 102.903 471.312 103.51 471.112 104.033C470.026 106.884 466.562 107.297 464.879 104.796C464.224 103.824 463.889 102.702 464.015 101.496C464.23 99.4641 464.488 97.4353 464.818 95.4234C464.923 94.7792 465.209 94.0926 465.593 93.6066C466.272 92.7447 466.495 91.7727 466.642 90.6849C467.272 86.0509 467.696 81.3999 467.837 76.52C466.03 75.209 464.217 73.8753 462.387 72.5727C461.505 71.9426 460.54 71.4481 459.706 70.753C459.026 70.1822 458.345 69.5012 457.902 68.7044C456.233 65.7036 456.899 63.3188 459.74 61.8071C462.022 60.5949 464.32 59.4194 466.595 58.1903C467.451 57.7297 468.26 57.1646 469.104 56.639C469.297 54.6865 469.512 52.8527 469.657 51.0132C470.43 41.2818 471.369 31.5758 472.913 21.9574C473.22 20.036 473.587 18.1258 473.974 16.2214C474.128 15.4669 474.329 14.6984 474.642 14.0118C475.356 12.4435 476.882 11.7117 478.392 12.1045C479.844 12.4831 480.892 14.0061 480.887 15.7665C480.887 16.1536 480.824 16.5435 480.764 16.9278C479.992 21.9263 479.237 26.9276 478.418 31.9177C478.264 32.8501 478.058 33.9719 477.502 34.5766C476.594 35.5656 476.344 36.7241 476.17 37.9645C475.735 41.0501 475.348 44.147 474.947 47.2382C474.783 48.4928 474.607 49.7473 474.474 51.0076C474.42 51.5473 474.466 52.0982 474.466 52.9827Z" fill="white"/>
<path d="M260.87 31.4099C260.523 32.3435 260.567 33.0152 260.544 33.6634C260.244 42.2441 259.967 50.8315 259.645 59.4122C259.525 62.6295 259.305 65.8435 259.139 69.0575C259.094 69.9239 258.893 70.8206 259.437 71.5998C260.278 72.7987 260.229 74.1421 259.922 75.5056C259.5 77.3963 259.027 79.2737 258.607 81.1645C258.492 81.6783 258.057 82.1921 258.613 82.9142C259.889 82.8269 261.273 82.7765 262.652 82.6254C268.112 82.0343 273.564 81.3391 279.029 80.8253C285.113 80.251 291.204 80.1032 297.286 80.9495C298.28 81.0906 299.28 81.1611 300.623 81.3022C300.196 80.6708 300.026 80.3517 299.799 80.0965C298.69 78.8573 297.564 77.6315 296.442 76.4056C290.267 69.662 284.025 62.9889 278.342 55.6978C272.719 48.4873 267.461 40.9578 262.32 33.3175C261.927 32.7331 261.473 32.1991 260.87 31.4099ZM252.18 83.5254C251.884 82.6892 251.698 82.1552 251.506 81.6246C251.198 80.7682 251.231 79.9252 251.484 79.0521C253.718 71.3647 254.554 63.4254 254.598 55.3888C254.634 49.4344 254.412 43.48 254.306 37.5222C254.254 34.4963 254.189 31.4704 254.157 28.4445C254.134 26.2884 254.214 24.1457 255.258 22.1273C254.611 21.0392 253.974 19.9981 253.366 18.9369C251.907 16.3912 250.4 13.8758 249.037 11.2663C248.295 9.8457 247.764 8.27734 247.215 6.73919C246.79 5.54697 246.669 4.27749 246.888 2.99459C247.18 1.29189 248.259 0.156743 249.698 0.0156911C251.143 -0.12872 252.519 0.734393 253.11 2.17178C253.218 2.43374 253.335 2.72929 253.333 3.00804C253.31 6.20858 254.823 8.76765 256.141 11.3939C262.855 24.7905 270.511 37.4651 279.327 49.2531C285.731 57.8136 292.908 65.4909 300.364 72.8625C304.154 76.6105 307.941 80.3618 311.722 84.1165C312.18 84.5699 312.634 85.0334 313.042 85.5405C314.265 87.0685 314.514 88.8149 313.766 90.39C313.069 91.8609 311.424 92.8181 309.777 92.5662C308.926 92.4319 308.085 92.1128 307.27 91.7871C306.123 91.327 305.001 90.7896 303.873 90.2724C299.726 88.3816 295.395 87.3976 290.958 86.8469C286.178 86.2558 281.382 86.0711 276.602 86.4539C271.308 86.8804 266.028 87.5958 260.761 88.3615C257.225 88.8754 253.723 89.6847 250.209 90.39C249.526 90.5243 248.863 90.7829 248.187 90.9643C247.295 91.2061 246.715 91.7031 246.303 92.7308C245.601 94.4872 244.308 95.2428 243.019 94.9977C241.503 94.7089 240.255 93.1841 240.045 91.3639C239.823 89.453 240.432 87.9182 241.733 86.7058C242.972 85.5505 244.445 84.9393 245.994 84.6102C247.532 84.2811 249.094 84.1098 250.645 83.8579C251.064 83.7907 251.479 83.6799 252.18 83.5254Z" fill="white"/>
<path d="M230.616 87.2581C230.616 83.6558 230.656 80.4396 230.607 77.2233C230.526 71.8527 230.347 66.4845 230.283 61.1139C230.168 51.543 230.021 41.972 230.068 32.4033C230.086 28.8057 230.615 25.2151 230.894 21.6175C230.984 20.4543 231.08 19.2865 231.07 18.121C231.051 15.8372 231.587 13.6758 232.18 11.5356C232.592 10.0475 233.53 9.03509 234.884 8.60893C237.349 7.83195 239.493 9.62372 239.567 12.4821C239.593 13.4898 239.319 14.3892 238.9 15.2721C236.868 19.5526 235.87 24.1886 235.259 28.9446C234.236 36.9028 234.147 44.9033 234.433 52.9156C234.856 64.7281 235.944 76.484 236.908 88.247C237.082 90.3684 237.549 92.4757 238.04 94.5406C238.473 96.3676 238.194 98.0629 237.511 99.6498C236.556 101.863 233.93 102.496 232.122 100.999C231.437 100.429 230.829 99.6663 230.362 98.861C228.985 96.4924 227.617 94.105 226.384 91.6398C220.883 80.635 216.171 69.2157 212.239 57.3962C211.357 54.7427 210.459 52.0986 209.534 49.464C209.358 48.9648 209.317 48.322 208.583 47.9689C208.555 48.6728 208.485 49.2968 208.512 49.916C208.793 56.3532 209.079 62.788 209.386 69.2251C209.61 73.9035 209.854 78.5819 210.121 83.2579C210.188 84.4233 210.451 85.577 210.494 86.7425C210.529 87.6984 210.512 88.7108 210.267 89.6126C209.836 91.2019 208.525 92.2025 207.091 92.1672C205.682 92.1319 204.562 91.435 203.943 89.9681C203.494 88.9016 203.268 87.7761 203.298 86.5659C203.478 79.2458 203.613 71.9257 203.787 64.608C203.981 56.4968 203.852 48.3927 203.269 40.3074C203.003 36.6108 202.607 32.9237 202.149 29.2507C201.946 27.6214 201.596 25.9709 201.049 24.4476C199.64 20.5226 199.087 16.3575 198.185 12.2937C197.845 10.7586 197.93 9.18343 198.808 7.79664C199.634 6.49225 200.744 5.84712 202.171 6.03077C203.608 6.21206 204.575 7.13267 205.043 8.64425C205.239 9.27761 205.367 9.97217 205.377 10.6408C205.476 17.4477 206.861 23.9861 208.597 30.4538C211.86 42.6124 215.445 54.6391 220.062 66.2514C222.618 72.6815 225.564 78.8809 228.791 84.9154C229.104 85.4993 229.431 86.0762 229.777 86.6389C229.863 86.7778 230.045 86.8437 230.616 87.2581Z" fill="white"/>
</svg>
