<svg width="40" height="41" viewBox="0 0 40 41" fill="none" xmlns="http://www.w3.org/2000/svg">
<g clip-path="url(#clip0_897_60)">
<path d="M40 20.0391C40 8.99337 31.0457 0.0390625 20 0.0390625C8.9543 0.0390625 0 8.99337 0 20.0391C0 31.0848 8.9543 40.0391 20 40.0391C31.0457 40.0391 40 31.0848 40 20.0391Z" fill="#0071E3"/>
<mask id="mask0_897_60" style="mask-type:luminance" maskUnits="userSpaceOnUse" x="0" y="0" width="40" height="41">
<path d="M40 20.0391C40 8.99337 31.0457 0.0390625 20 0.0390625C8.9543 0.0390625 0 8.99337 0 20.0391C0 31.0848 8.9543 40.0391 20 40.0391C31.0457 40.0391 40 31.0848 40 20.0391Z" fill="white"/>
</mask>
<g mask="url(#mask0_897_60)">
<path d="M21.6 17.8389V18.2105L21.599 18.2105L21.596 17.8389L9.19781 17.9389C8.6408 17.9396 8.09822 18.2114 7.70345 18.591C7.30544 18.9737 7 19.5217 7 20.1389C7 20.6967 7.27199 21.2401 7.65208 21.6354C8.03478 22.0334 8.58278 22.3389 9.2 22.3389H21.8H31C31.5578 22.3389 32.1013 22.0669 32.4966 21.6868C32.8946 21.3041 33.2 20.7561 33.2 20.1389V20.084L33.1881 20.0304C33.0667 19.4842 32.7683 18.9501 32.3661 18.5478C31.965 18.1468 31.42 17.8389 30.8 17.8389H21.6Z" fill="white" stroke="white"/>
</g>
</g>
<defs>
<clipPath id="clip0_897_60">
<rect width="40" height="41" fill="white"/>
</clipPath>
</defs>
</svg>
