<svg width="40" height="41" viewBox="0 0 40 41" fill="none" xmlns="http://www.w3.org/2000/svg">
<g clip-path="url(#clip0_897_53)">
<path d="M40 20.0391C40 8.99337 31.0457 0.0390625 20 0.0390625C8.9543 0.0390625 0 8.99337 0 20.0391C0 31.0848 8.9543 40.0391 20 40.0391C31.0457 40.0391 40 31.0848 40 20.0391Z" fill="#00ED89"/>
<mask id="mask0_897_53" style="mask-type:luminance" maskUnits="userSpaceOnUse" x="0" y="0" width="40" height="41">
<path d="M40 20.0391C40 8.99337 31.0457 0.0390625 20 0.0390625C8.9543 0.0390625 0 8.99337 0 20.0391C0 31.0848 8.9543 40.0391 20 40.0391C31.0457 40.0391 40 31.0848 40 20.0391Z" fill="white"/>
</mask>
<g mask="url(#mask0_897_53)">
<path d="M30.8 17.8391H22.1V9.23906C22.1 8.68129 21.828 8.1378 21.4479 7.74251C21.0652 7.34451 20.5172 7.03906 19.9 7.03906C19.3422 7.03906 18.7987 7.31106 18.4034 7.69115C18.0054 8.07384 17.7 8.62185 17.7 9.23906V17.9391H9.2C8.64222 17.9391 8.09874 18.2111 7.70345 18.5912C7.30544 18.9739 7 19.5219 7 20.1391C7 20.6969 7.27199 21.2404 7.65208 21.6357C8.03478 22.0337 8.58278 22.3391 9.2 22.3391H17.9V31.0391C17.9 31.5969 18.172 32.1404 18.5521 32.5357C18.9348 32.9337 19.4828 33.2391 20.1 33.2391C20.6578 33.2391 21.2013 32.9671 21.5966 32.587C21.9946 32.2043 22.3 31.6563 22.3 31.0391V22.3391H31C31.5578 22.3391 32.1013 22.0671 32.4966 21.687C32.8946 21.3043 33.2 20.7563 33.2 20.1391V20.0842L33.1881 20.0306C33.0667 19.4844 32.7683 18.9503 32.3661 18.548C31.965 18.147 31.42 17.8391 30.8 17.8391Z" fill="#008E52" stroke="#008E52"/>
</g>
</g>
<defs>
<clipPath id="clip0_897_53">
<rect width="40" height="41" fill="white"/>
</clipPath>
</defs>
</svg>
