<svg width="56" height="43" viewBox="0 0 56 43" fill="none" xmlns="http://www.w3.org/2000/svg">
<g clip-path="url(#clip0_2027_90)">
<path d="M8.84596 41.9012H46.3838C50.9404 41.9012 53.197 39.6495 53.197 35.1893V8.75297C53.197 4.29277 50.9404 2.04102 46.3838 2.04102H8.84596C4.31103 2.04102 2.03271 4.27111 2.03271 8.75297V35.1893C2.03271 39.6712 4.31103 41.9012 8.84596 41.9012ZM8.88936 38.4154C6.71954 38.4154 5.52614 37.2679 5.52614 35.0162V8.92617C5.52614 6.67443 6.71954 5.5269 8.88936 5.5269H46.3405C48.4886 5.5269 49.7037 6.67443 49.7037 8.92617V35.0162C49.7037 37.2679 48.4886 38.4154 46.3405 38.4154H8.88936ZM18.5668 39.0866H21.9734V4.87736H18.5668V39.0866ZM14.4007 13.5596C15.0517 13.5596 15.6375 12.975 15.6375 12.3471C15.6375 11.6975 15.0517 11.1346 14.4007 11.1346H9.73559C9.08464 11.1346 8.52048 11.6975 8.52048 12.3471C8.52048 12.975 9.08464 13.5596 9.73559 13.5596H14.4007ZM14.4007 19.1673C15.0517 19.1673 15.6375 18.5827 15.6375 17.9332C15.6375 17.2836 15.0517 16.7423 14.4007 16.7423H9.73559C9.08464 16.7423 8.52048 17.2836 8.52048 17.9332C8.52048 18.5827 9.08464 19.1673 9.73559 19.1673H14.4007ZM14.4007 24.7534C15.0517 24.7534 15.6375 24.212 15.6375 23.5625C15.6375 22.913 15.0517 22.35 14.4007 22.35H9.73559C9.08464 22.35 8.52048 22.913 8.52048 23.5625C8.52048 24.212 9.08464 24.7534 9.73559 24.7534H14.4007Z" fill="white" stroke="white" stroke-width="3"/>
</g>
<defs>
<clipPath id="clip0_2027_90">
<rect width="56" height="43" fill="white"/>
</clipPath>
</defs>
</svg>
