<svg width="34" height="34" viewBox="0 0 34 34" fill="none" xmlns="http://www.w3.org/2000/svg">
<path d="M28 0.5C29.4029 0.499922 30.7528 1.03593 31.7735 1.99835C32.7942 2.96078 33.4085 4.27686 33.4908 5.67733L33.5 6V28C33.5001 29.4029 32.9641 30.7528 32.0016 31.7735C31.0392 32.7942 29.7231 33.4085 28.3227 33.4908L28 33.5H6C4.59711 33.5001 3.24722 32.9641 2.22652 32.0016C1.20582 31.0392 0.59147 29.7231 0.509167 28.3227L0.5 28V6C0.499922 4.59711 1.03593 3.24722 1.99835 2.22652C2.96078 1.20582 4.27686 0.59147 5.67733 0.509167L6 0.5H28ZM22.5 4.16667H6C5.55096 4.16673 5.11755 4.33159 4.78198 4.62998C4.44642 4.92837 4.23204 5.33954 4.1795 5.7855L4.16667 6V28C4.16673 28.449 4.33159 28.8825 4.62998 29.218C4.92837 29.5536 5.33954 29.768 5.7855 29.8205L6 29.8333H22.5V4.16667ZM12.6238 11.885L12.7962 12.0372L16.4628 15.7038C16.7785 16.0195 16.9681 16.4395 16.9961 16.8851C17.0241 17.3306 16.8886 17.7711 16.615 18.1238L16.4628 18.2962L12.7962 21.9628C12.4662 22.2916 12.0235 22.4825 11.558 22.4968C11.0924 22.511 10.6389 22.3474 10.2895 22.0394C9.94012 21.7313 9.72111 21.3018 9.67694 20.8381C9.63276 20.3744 9.76675 19.9113 10.0517 19.5428L10.2038 19.3705L12.5725 17L10.2038 14.6295C9.88818 14.3138 9.69855 13.8938 9.67054 13.4482C9.64252 13.0027 9.77804 12.5622 10.0517 12.2095L10.2038 12.0372C10.5195 11.7215 10.9395 11.5319 11.3851 11.5039C11.8306 11.4759 12.2711 11.6114 12.6238 11.885Z" fill="white"/>
</svg>
