<svg width="587" height="101" viewBox="0 0 587 101" fill="none" xmlns="http://www.w3.org/2000/svg">
<path d="M53.928 3.84C59.1333 1.792 61.864 0.767998 62.12 0.767998C62.5467 0.767998 63.2293 2.09066 64.168 4.736C65.1067 7.38133 65.576 9.38667 65.576 10.752V11.776C65.576 13.9093 66.7707 18.1333 69.16 24.448C71.5493 30.6773 73.2133 33.8773 74.152 34.048C75.176 34.2187 76.0293 34.56 76.712 35.072C77.3093 35.6693 77.608 36.6507 77.608 38.016C77.608 39.296 77.352 40.32 76.84 41.088C76.584 41.4293 76.2427 41.6 75.816 41.6C75.048 41.6 74.2373 41.1733 73.384 40.32C72.5307 39.3813 71.976 38.4 71.72 37.376C71.2933 35.6693 70.2267 33.92 68.52 32.128C66.8133 30.2507 65.1067 28.9707 63.4 28.288C61.6933 27.6907 60.8827 27.1787 60.968 26.752C61.0533 26.6667 61.1813 26.5387 61.352 26.368C62.0347 25.9413 61.9493 25.5147 61.096 25.088C60.328 24.7467 59.176 23.2107 57.64 20.48C56.1893 17.7493 55.464 15.9147 55.464 14.976C55.464 14.8907 55.5067 14.7627 55.592 14.592L55.72 14.208C55.72 14.0373 55.592 13.952 55.336 13.952C54.3973 13.952 51.4533 15.232 46.504 17.792C41.2133 20.4373 38.3973 21.76 38.056 21.76C37.544 21.76 36.776 22.272 35.752 23.296C34.728 24.32 33.1493 24.832 31.016 24.832C28.968 24.832 27.944 25.3013 27.944 26.24C27.944 27.008 26.4933 28.2027 23.592 29.824C21.1173 31.0187 19.88 31.9147 19.88 32.512C19.88 32.5973 26.3227 35.328 39.208 40.704L57.768 48.128L65.064 47.744C67.624 47.5733 69.1173 47.488 69.544 47.488C71.2507 47.488 72.104 47.6587 72.104 48C72.104 48.768 72.4027 52.224 73 58.368C73.3413 63.1467 73.512 65.7067 73.512 66.048C73.512 67.84 73.256 69.376 72.744 70.656L71.72 73.344C65.576 74.112 56.2747 75.3067 43.816 76.928C31.4427 78.5493 22.184 79.744 16.04 80.512L12.456 78.464C11.0053 77.6107 9.93867 76.7147 9.256 75.776C8.57333 74.9227 7.80533 73.472 6.952 71.424C5.75733 68.352 4.264 65.92 2.472 64.128C1.02133 62.6773 0.296 61.4827 0.296 60.544C0.296 60.032 0.338667 59.648 0.424 59.392C0.594667 58.624 0.808 58.112 1.064 57.856C1.32 57.6 2.00267 57.472 3.112 57.472C4.47733 57.472 7.50667 57.728 12.2 58.24C17.832 58.752 20.648 59.392 20.648 60.16C20.648 60.5013 19.88 61.0987 18.344 61.952C16.9787 62.6347 16.4667 63.4027 16.808 64.256C17.1493 65.1947 17.448 66.304 17.704 67.584C17.96 69.12 17.448 70.1013 16.168 70.528L14.376 71.168L16.808 72.704C18.0027 73.472 19.1547 73.856 20.264 73.856C21.3733 73.856 24.488 73.472 29.608 72.704C36.6053 71.7653 40.4453 71.0827 41.128 70.656C42.0667 70.0587 44.072 69.632 47.144 69.376C49.448 69.12 50.9413 68.7787 51.624 68.352C52.3067 68.0107 53.2027 66.9867 54.312 65.28C55.7627 62.8907 56.488 61.312 56.488 60.544C56.488 59.6907 55.7627 58.5387 54.312 57.088C52.776 55.6373 51.0267 54.912 49.064 54.912H48.424C39.2933 54.912 27.3893 51.7973 12.712 45.568C9.46933 44.2027 7.76267 43.264 7.592 42.752C7.50667 42.5813 7.464 42.4107 7.464 42.24C7.464 41.8133 7.50667 41.4293 7.592 41.088C7.848 39.552 7.67733 38.784 7.08 38.784C6.14133 38.784 5.88533 38.3147 6.312 37.376C6.65333 36.7787 7.12267 36.352 7.72 36.096C8.65867 35.84 9.128 35.456 9.128 34.944C9.128 34.3467 8.27467 33.408 6.568 32.128C4.94667 30.7627 4.136 29.952 4.136 29.696C4.136 29.0133 6.35467 27.264 10.792 24.448C15.3147 21.5467 20.136 18.816 25.256 16.256C32.5093 12.5867 42.0667 8.448 53.928 3.84ZM84.488 47.36C84.744 47.36 84.872 47.232 84.872 46.976C84.872 46.72 84.744 46.592 84.488 46.592C84.232 46.592 84.104 46.72 84.104 46.976C84.104 47.232 84.232 47.36 84.488 47.36ZM93.832 37.248C94.088 37.248 94.216 37.12 94.216 36.864C94.216 36.608 94.088 36.48 93.832 36.48C93.576 36.48 93.448 36.608 93.448 36.864C93.448 37.12 93.576 37.248 93.832 37.248ZM57.736 30.08C57.736 29.1413 58.3333 28.672 59.528 28.672C60.2107 28.672 60.808 28.928 61.32 29.44C61.7467 29.8667 66.056 30.3787 74.248 30.976C79.9653 31.4027 83.336 31.616 84.36 31.616C86.152 31.616 87.432 31.36 88.2 30.848C89.1387 30.336 90.248 30.08 91.528 30.08C93.832 30.08 94.984 30.5493 94.984 31.488C94.984 31.744 95.1547 32 95.496 32.256C95.8373 32.4267 96.5627 32.5973 97.672 32.768C98.7813 32.9387 100.36 33.152 102.408 33.408C104.456 33.5787 107.187 33.792 110.6 34.048C117 34.7307 120.755 35.3707 121.864 35.968C123.997 36.8213 126.472 37.376 129.288 37.632C132.616 38.0587 134.28 38.4853 134.28 38.912C134.28 39.7653 133.171 40.192 130.952 40.192C129.501 40.192 125.789 39.7653 119.816 38.912L109.448 37.376L106.376 38.912C104.669 39.8507 102.365 40.32 99.464 40.32H97.672H95.368C92.8933 40.32 91.528 40.448 91.272 40.704C90.76 41.3867 87.3467 48.8107 81.032 62.976C74.5467 77.3973 71.0053 84.608 70.408 84.608C69.2133 84.608 68.616 83.4133 68.616 81.024C68.616 79.1467 68.7013 77.5253 68.872 76.16C69.384 71.8933 69.9813 69.76 70.664 69.76C71.432 69.76 72.0293 69.3333 72.456 68.48C72.8827 67.6267 74.8027 62.6347 78.216 53.504C81.6293 44.3733 83.336 39.6373 83.336 39.296C83.336 38.9547 82.2693 38.784 80.136 38.784C76.8933 38.6987 73.1387 38.272 68.872 37.504C64.6907 36.736 62.1733 35.968 61.32 35.2C59.016 33.152 57.8213 31.4453 57.736 30.08ZM163.066 56.576C163.578 56.576 163.834 56.32 163.834 55.808C163.834 55.296 163.749 55.04 163.578 55.04C163.237 55.04 162.938 55.3387 162.682 55.936C162.682 56.2773 162.81 56.4907 163.066 56.576ZM164.986 32.512C163.706 32.0853 159.311 31.872 151.802 31.872H147.962C143.439 31.872 140.666 32.128 139.642 32.64C138.618 33.152 138.063 34.4747 137.978 36.608V37.376C137.978 38.144 138.106 38.656 138.362 38.912C138.618 39.0827 139.173 39.2533 140.026 39.424H140.282C142.245 39.424 146.853 38.4427 154.106 36.48C161.445 34.432 165.114 33.152 165.114 32.64C165.114 32.5547 165.071 32.512 164.986 32.512ZM132.09 26.496L133.626 23.04L139.258 23.552C162.725 25.4293 177.701 26.368 184.186 26.368C185.551 26.368 187.045 27.5627 188.666 29.952C190.202 32.256 190.97 33.536 190.97 33.792L173.946 39.68C162.597 43.4347 156.922 45.4827 156.922 45.824C156.922 46.08 161.445 47.9573 170.49 51.456L184.186 56.832L174.97 66.048L169.21 64.384C164.687 63.0187 162.426 62.08 162.426 61.568C162.426 61.3973 162.895 61.312 163.834 61.312C169.466 60.9707 172.282 60.544 172.282 60.032C172.282 59.8613 170.49 59.776 166.906 59.776C162.981 59.776 160.762 60.032 160.25 60.544C159.567 61.2267 159.098 61.2267 158.842 60.544C158.586 60.032 157.946 59.776 156.922 59.776C156.069 59.776 153.637 59.008 149.626 57.472C145.701 55.936 142.074 54.3573 138.746 52.736C135.845 51.2 134.095 50.432 133.498 50.432C133.327 50.432 132.175 52.4373 130.042 56.448C127.994 60.3733 125.903 64.3413 123.77 68.352L120.698 74.368H120.57C120.143 74.368 119.034 73.2587 117.242 71.04C115.45 68.9067 114.554 67.456 114.554 66.688C114.554 65.3227 115.663 62.208 117.882 57.344C124.026 44.4587 128.762 34.176 132.09 26.496ZM209.903 67.072C210.5 67.4133 210.97 67.3707 211.311 66.944C211.567 66.688 211.482 66.56 211.055 66.56C210.884 66.56 210.671 66.56 210.415 66.56C209.988 66.56 209.69 66.6027 209.519 66.688C209.434 66.7733 209.562 66.9013 209.903 67.072ZM204.271 68.096C206.575 68.096 207.727 67.84 207.727 67.328C207.727 66.816 206.575 66.56 204.271 66.56C201.882 66.56 200.687 66.816 200.687 67.328C200.687 67.84 201.882 68.096 204.271 68.096ZM197.231 67.2C196.89 66.688 196.036 66.5173 194.671 66.688C188.186 67.1147 184.644 67.6267 184.047 68.224C183.876 68.3947 183.791 68.5227 183.791 68.608C183.791 68.864 184.943 68.992 187.247 68.992H190.575C195.098 68.736 197.359 68.224 197.359 67.456C197.359 67.3707 197.316 67.328 197.231 67.328C197.231 67.328 197.231 67.2853 197.231 67.2ZM210.799 48.64C211.396 48.64 211.695 48.384 211.695 47.872C211.695 47.36 211.567 47.104 211.311 47.104C211.055 47.104 210.799 47.4027 210.543 48C210.372 48.4267 210.458 48.64 210.799 48.64ZM192.111 48.64C192.708 48.64 193.007 48.384 193.007 47.872C193.007 47.36 192.708 47.104 192.111 47.104C191.599 47.104 191.343 47.36 191.343 47.872C191.343 48.384 191.599 48.64 192.111 48.64ZM208.879 46.208C209.135 46.208 209.263 46.08 209.263 45.824C209.263 45.568 209.135 45.44 208.879 45.44C208.623 45.44 208.495 45.568 208.495 45.824C208.495 46.08 208.623 46.208 208.879 46.208ZM206.575 46.208C207.514 45.8667 207.514 45.696 206.575 45.696C206.319 45.696 205.935 45.696 205.423 45.696C203.802 45.696 202.223 45.8667 200.687 46.208C199.578 46.5493 199.407 46.7627 200.175 46.848H201.967C204.015 46.848 205.551 46.6347 206.575 46.208ZM235.503 71.168C235.247 71.168 226.074 73.1307 207.983 77.056C189.978 80.9813 180.932 82.944 180.847 82.944C180.506 82.944 178.799 81.5787 175.727 78.848C172.655 76.1173 171.119 74.5813 171.119 74.24C171.119 73.728 173.466 70.1013 178.159 63.36L185.327 53.248H188.527C188.783 53.248 189.38 53.248 190.319 53.248C191.343 53.1627 192.196 53.12 192.879 53.12C193.476 53.12 194.415 53.1627 195.695 53.248C197.06 53.248 198.084 53.248 198.767 53.248H201.839C203.972 53.248 205.039 53.0773 205.039 52.736C205.039 52.5653 204.911 52.352 204.655 52.096C203.972 51.4133 202.138 51.072 199.151 51.072H195.951H193.647C189.722 51.072 187.759 50.944 187.759 50.688C187.759 50.0053 190.404 45.952 195.695 38.528L204.143 26.624L220.143 27.136C233.028 27.4773 242.33 27.776 248.047 28.032L259.951 28.544C258.33 30.7627 256.666 33.28 254.959 36.096H243.183C237.807 36.096 234.394 36.1813 232.943 36.352C231.578 36.5227 230.596 36.9493 229.999 37.632C229.316 38.3147 228.42 38.784 227.311 39.04C226.287 39.2107 224.026 39.296 220.527 39.296H212.463L211.311 41.6L210.031 43.904H226.927H232.815C236.911 43.904 239.642 43.9893 241.007 44.16C242.372 44.3307 243.055 44.7147 243.055 45.312C243.055 45.568 242.372 46.848 241.007 49.152C239.983 50.8587 238.575 51.9253 236.783 52.352C235.076 52.6933 228.122 53.632 215.919 55.168C208.239 56.1067 203.844 56.9173 202.735 57.6C202.138 57.9413 201.327 59.0933 200.303 61.056C199.023 63.36 198.383 64.8107 198.383 65.408C198.383 65.5787 198.596 65.664 199.023 65.664C200.132 65.664 207.812 64.512 222.063 62.208C232.559 60.5013 238.276 59.648 239.215 59.648C239.812 59.648 240.154 59.7333 240.239 59.904C240.41 60.0747 240.495 60.3307 240.495 60.672C240.495 61.3547 239.727 63.2747 238.191 66.432C236.74 69.5893 235.844 71.168 235.503 71.168ZM279.992 49.408C279.992 48.9813 279.651 48.6827 278.968 48.512C278.371 48.256 277.731 48.2133 277.048 48.384C275.853 48.8107 275.64 49.28 276.408 49.792C276.749 50.048 277.261 50.176 277.944 50.176C279.309 50.176 279.992 49.92 279.992 49.408ZM267.448 48.128C267.448 47.9573 267.192 47.872 266.68 47.872C266.168 47.872 265.912 48.128 265.912 48.64C265.912 49.3227 266.296 49.3227 267.064 48.64C267.32 48.4693 267.448 48.2987 267.448 48.128ZM303.16 40.832L303.928 36.736C303.928 36.5653 303.629 36.48 303.032 36.48C302.008 36.48 300.771 36.6933 299.32 37.12C297.869 37.4613 297.059 37.8027 296.888 38.144C296.461 38.912 293.56 39.296 288.184 39.296H279.992L278.84 41.6L277.56 43.904H281.784C284.003 43.904 288.099 44.0747 294.072 44.416L302.264 44.928L303.16 40.832ZM267.192 34.048L271.8 27.52L287.8 27.904C298.979 28.2453 306.488 28.544 310.328 28.8L316.728 29.312L316.344 31.488C315.917 33.4507 315.576 35.5413 315.32 37.76C314.979 40.6613 314.253 42.5813 313.144 43.52C311.949 44.4587 309.987 49.0667 307.256 57.344L303.288 69.632L299.704 70.144C297.229 70.4853 295.992 70.4853 295.992 70.144C295.992 69.7173 296.504 67.0293 297.528 62.08C298.637 57.0453 299.192 54.2293 299.192 53.632C299.192 53.4613 298.851 53.376 298.168 53.376C296.547 53.376 293.901 53.5893 290.232 54.016C284.515 54.6987 279.096 55.168 273.976 55.424C270.307 55.5947 268.003 55.808 267.064 56.064C266.125 56.2347 265.443 56.7467 265.016 57.6C264.589 58.4533 264.035 59.008 263.352 59.264C262.755 59.4347 261.432 59.52 259.384 59.52C256.141 59.52 254.221 59.7333 253.624 60.16C253.283 60.416 253.112 60.6293 253.112 60.8C253.112 61.312 254.392 61.568 256.952 61.568C258.403 61.568 259.597 61.5253 260.536 61.44C264.205 61.0133 266.125 60.3307 266.296 59.392C266.637 58.4533 267.277 57.9413 268.216 57.856C268.643 58.0267 268.899 58.24 268.984 58.496C268.984 58.752 267.277 62.08 263.864 68.48L258.744 77.952L254.392 79.616C252.259 80.384 250.851 80.768 250.168 80.768C249.656 80.768 249.229 80.64 248.888 80.384C248.803 80.2987 248.461 80 247.864 79.488C247.267 79.0613 246.584 78.5493 245.816 77.952C245.133 77.44 244.493 76.928 243.896 76.416L240.184 73.344L244.152 67.584C246.797 63.744 248.504 61.824 249.272 61.824C249.699 61.824 249.912 61.4827 249.912 60.8C249.912 59.8613 251.661 56.7893 255.16 51.584L260.792 43.52L264.632 43.136C267.107 42.7947 268.515 42.3253 268.856 41.728C269.027 41.3013 268.685 41.088 267.832 41.088L266.04 41.216C263.907 41.5573 262.84 41.5573 262.84 41.216C262.84 40.704 264.291 38.3147 267.192 34.048ZM340.394 66.688C340.565 66.688 340.65 66.432 340.65 65.92C340.65 65.408 340.351 65.152 339.754 65.152C339.071 65.152 339.114 65.536 339.882 66.304C340.053 66.56 340.223 66.688 340.394 66.688ZM343.722 65.664C343.722 64.8107 343.466 64.384 342.954 64.384C342.442 64.384 342.186 64.5973 342.186 65.024C342.186 65.6213 342.485 66.048 343.082 66.304C343.423 66.2187 343.637 66.0053 343.722 65.664ZM328.874 32.384C331.263 27.1787 332.885 24.576 333.738 24.576H333.866C334.634 24.9173 334.89 25.6853 334.634 26.88C334.634 26.9653 334.591 27.0933 334.506 27.264C334.506 27.4347 334.506 27.5627 334.506 27.648C334.506 28.3307 335.487 28.672 337.45 28.672C339.498 28.672 340.778 29.1413 341.29 30.08C341.375 30.1653 341.717 32.1707 342.314 36.096C342.911 39.936 343.509 43.776 344.106 47.616C344.789 51.456 345.173 53.376 345.258 53.376C345.855 53.376 348.031 49.3653 351.786 41.344C356.735 30.848 359.679 25.6 360.618 25.6C360.789 25.6 360.874 25.7707 360.874 26.112C360.874 26.7093 361.855 27.1787 363.818 27.52C366.293 27.9467 367.829 28.3307 368.426 28.672C369.023 28.928 369.535 29.568 369.962 30.592C370.645 31.9573 371.754 33.024 373.29 33.792C374.655 34.4747 375.338 35.1573 375.338 35.84C375.338 36.096 375.253 36.6507 375.082 37.504C374.058 43.0507 373.034 48.896 372.01 55.04C370.73 62.3787 370.09 67.456 370.09 70.272C370.09 71.04 370.133 71.5093 370.218 71.68C370.389 72.0213 370.474 72.4053 370.474 72.832C370.474 73.9413 369.962 75.9467 368.938 78.848C367.999 81.3227 367.274 82.9013 366.762 83.584C366.25 84.2667 365.567 84.608 364.714 84.608C363.775 84.608 363.135 84.2667 362.794 83.584C362.538 82.9867 362.197 81.152 361.77 78.08C361.429 75.776 361.258 73.472 361.258 71.168C361.258 69.4613 361.386 67.4987 361.642 65.28C362.495 57.4293 362.922 50.6027 362.922 44.8C362.922 42.5813 362.837 41.472 362.666 41.472H362.538C361.855 42.1547 359.295 47.5307 354.858 57.6C350.421 67.6693 348.202 73.1307 348.202 73.984C348.202 75.1787 347.818 75.776 347.05 75.776C346.111 75.776 344.703 75.0507 342.826 73.6C340.607 71.8933 339.327 70.656 338.986 69.888C338.645 69.2053 338.303 67.328 337.962 64.256C337.877 63.4027 337.749 62.464 337.578 61.44C337.493 60.416 337.365 59.6053 337.194 59.008C337.109 58.3253 337.066 57.8987 337.066 57.728C337.066 57.3867 338.602 57.216 341.674 57.216H345.13H347.69C350.591 57.216 352.042 57.088 352.042 56.832C352.042 56.7467 351.999 56.704 351.914 56.704C351.487 56.5333 351.018 56.448 350.506 56.448C350.079 56.3627 349.823 56.3627 349.738 56.448C349.653 56.5333 349.354 56.576 348.842 56.576C348.415 56.576 347.477 56.5333 346.026 56.448C344.575 56.2773 343.466 56.192 342.698 56.192L336.17 55.68L335.018 48.512L333.994 41.472L332.202 45.44C328.362 53.632 324.607 61.2693 320.938 68.352C317.269 75.52 315.263 79.104 314.922 79.104C314.41 79.104 313.13 79.36 311.082 79.872C309.717 80.2133 308.735 80.8533 308.138 81.792C307.541 82.816 306.346 85.8027 304.554 90.752C302.079 97.3227 300.33 100.608 299.306 100.608C298.709 100.608 298.069 99.4133 297.386 97.024C296.959 95.3173 296.746 94.208 296.746 93.696C296.746 93.0133 297.002 92.0747 297.514 90.88C298.282 89.2587 299.178 88.448 300.202 88.448C301.141 88.448 301.909 87.9787 302.506 87.04C303.189 86.1013 304.383 83.584 306.09 79.488C309.503 71.7227 317.098 56.0213 328.874 32.384ZM376.175 54.016C376.431 54.272 376.73 54.3147 377.071 54.144C377.327 53.888 377.242 53.6747 376.815 53.504C376.388 53.5893 376.175 53.76 376.175 54.016ZM413.935 41.344C413.935 41.2587 413.764 41.216 413.423 41.216C413.082 41.216 412.484 41.2587 411.631 41.344C410.778 41.4293 409.284 41.5573 407.151 41.728C405.103 41.8987 403.012 42.0693 400.879 42.24L391.407 43.008L389.743 45.952C388.719 47.8293 388.335 48.9813 388.591 49.408C389.103 49.408 393.455 48.1707 401.647 45.696C409.839 43.136 413.935 41.6853 413.935 41.344ZM424.047 34.048C424.73 33.6213 426.266 33.408 428.655 33.408H431.983L431.471 36.608C431.471 36.864 431.172 38.4 430.575 41.216C430.49 41.5573 428.484 42.496 424.559 44.032C420.719 45.4827 415.215 47.4027 408.047 49.792C400.964 52.1813 393.156 54.6987 384.623 57.344C384.026 57.5147 383.471 57.856 382.959 58.368C382.532 58.7947 382.063 59.3493 381.551 60.032C381.124 60.6293 380.783 61.056 380.527 61.312C380.271 61.568 379.972 62.3787 379.631 63.744C379.46 64.4267 378.01 67.7547 375.279 73.728C373.316 77.7387 371.951 80.2133 371.183 81.152C370.415 82.176 368.836 83.3707 366.447 84.736C364.228 86.016 362.735 87.04 361.967 87.808C361.284 88.576 360.559 89.9413 359.791 91.904C359.194 93.3547 358.468 94.5493 357.615 95.488C356.847 96.512 356.25 97.024 355.823 97.024C355.567 97.024 355.439 96.9387 355.439 96.768C355.439 96.3413 358.298 90.1973 364.015 78.336L372.719 60.16L370.415 57.984C368.879 56.448 368.196 55.5947 368.367 55.424C368.452 55.3387 369.007 55.2533 370.031 55.168C371.14 54.9973 372.164 54.8267 373.103 54.656C374.127 54.4 374.639 54.1013 374.639 53.76C374.639 53.0773 374.81 52.736 375.151 52.736C375.663 52.736 377.37 50.048 380.271 44.672L384.495 36.608L389.359 36.096C392.26 35.84 398.66 35.5413 408.559 35.2C418.116 34.8587 423.279 34.4747 424.047 34.048ZM457.953 41.856C465.292 29.9947 469.302 24.064 469.985 24.064C470.668 24.064 471.009 24.192 471.009 24.448C471.009 24.6187 470.412 25.8133 469.217 28.032C468.108 29.9947 467.553 32.2987 467.553 34.944C467.553 36.736 467.809 38.5707 468.321 40.448C468.321 40.5333 468.321 40.6613 468.321 40.832C468.406 40.9173 468.449 41.0027 468.449 41.088C468.449 42.5387 465.206 49.0667 458.721 60.672C450.87 74.8373 446.945 81.9627 446.945 82.048C445.921 84.2667 445.196 85.2907 444.769 85.12C438.966 82.3893 436.065 80.8107 436.065 80.384L436.705 78.592C437.046 77.312 437.388 76.0747 437.729 74.88C438.156 73.7707 438.326 73.216 438.241 73.216C437.985 73.216 434.998 75.2213 429.281 79.232L420.577 85.376L416.481 82.432C415.884 82.0053 415.201 81.536 414.433 81.024C413.665 80.512 413.068 80.128 412.641 79.872L412.129 79.488C412.129 79.1467 413.537 75.52 416.353 68.608C418.572 63.5733 420.022 60.5013 420.705 59.392C421.473 58.2827 422.796 57.216 424.673 56.192C427.233 54.912 428.982 54.272 429.921 54.272C430.945 54.272 431.457 55.0827 431.457 56.704C431.457 58.8373 430.689 61.568 429.153 64.896C427.702 68.3093 426.977 70.2293 426.977 70.656C426.977 71.2533 430.348 69.5467 437.089 65.536L446.945 59.52L457.953 41.856ZM500.218 60.544C500.474 60.544 500.602 60.416 500.602 60.16C500.602 59.904 500.474 59.776 500.218 59.776C499.962 59.776 499.834 59.904 499.834 60.16C499.834 60.416 499.962 60.544 500.218 60.544ZM499.578 50.176L507.258 36.48H513.658C518.095 36.48 520.314 36.6507 520.314 36.992C520.314 37.5893 516.218 45.3973 508.026 60.416C499.834 75.3493 495.311 83.328 494.458 84.352C493.775 85.0347 491.941 85.376 488.954 85.376C486.735 85.376 485.37 85.2053 484.858 84.864C484.346 84.608 483.578 83.6693 482.554 82.048C481.189 79.5733 480.378 77.184 480.122 74.88C479.951 73.4293 479.61 71.296 479.098 68.48L478.714 65.92H483.706C490.362 65.92 494.202 65.0667 495.226 63.36C495.738 62.5067 495.951 62.08 495.866 62.08C495.781 61.9947 495.311 62.336 494.458 63.104C493.263 64.2133 492.581 64.5547 492.41 64.128C492.41 63.1893 494.799 58.5387 499.578 50.176ZM474.874 39.296C477.69 34.2613 479.183 31.744 479.354 31.744C479.61 31.744 479.653 32.5973 479.482 34.304C479.482 34.4747 479.439 34.688 479.354 34.944C479.354 35.2 479.354 35.3707 479.354 35.456C479.354 36.0533 479.482 36.4373 479.738 36.608C479.994 36.7787 480.549 36.9493 481.402 37.12C482.682 37.2907 483.493 37.8027 483.834 38.656C488.357 54.272 490.618 62.4213 490.618 63.104C490.618 63.36 490.49 63.5733 490.234 63.744C489.978 63.9147 489.466 64.0427 488.698 64.128C487.93 64.2133 486.863 64.256 485.498 64.256C484.218 64.3413 482.426 64.384 480.122 64.384C473.125 64.384 469.498 64.64 469.242 65.152C469.071 65.408 469.327 65.6213 470.01 65.792C470.607 65.8773 471.375 65.92 472.314 65.92C474.618 65.92 475.77 66.0907 475.77 66.432C475.77 66.8587 474.149 69.632 470.906 74.752L466.042 82.56L461.818 83.456C457.722 84.3947 454.863 84.864 453.242 84.864C451.877 84.864 451.194 84.48 451.194 83.712C451.194 82.2613 451.919 80.2987 453.37 77.824C454.479 75.776 455.333 74.4107 455.93 73.728C456.613 73.0453 457.551 72.5333 458.746 72.192H458.874L459.13 72.064L460.666 71.552C460.581 71.552 460.154 71.5093 459.386 71.424H457.21L458.49 68.608C459.087 67.328 459.642 66.56 460.154 66.304C460.666 66.048 461.946 65.92 463.994 65.92C466.725 65.92 468.09 65.6213 468.09 65.024C468.09 64.5973 467.919 64.4693 467.578 64.64C467.237 64.896 466.042 64.8533 463.994 64.512L461.178 64L465.914 55.424C466.853 53.7173 468.389 50.9013 470.522 46.976C472.741 43.0507 474.191 40.4907 474.874 39.296ZM517.146 51.2C517.402 51.2 517.53 51.072 517.53 50.816C517.53 50.56 517.402 50.432 517.146 50.432C516.89 50.432 516.762 50.56 516.762 50.816C516.762 51.072 516.89 51.2 517.146 51.2ZM545.946 30.848C562.501 22.7413 570.949 18.688 571.29 18.688H571.418C571.589 18.688 571.674 18.7307 571.674 18.816C571.674 19.328 570.223 21.0347 567.322 23.936C564.165 27.0933 560.581 29.696 556.57 31.744C552.303 33.792 549.999 35.072 549.658 35.584C549.402 36.0107 545.775 38.1013 538.778 41.856C531.866 45.5253 528.41 47.488 528.41 47.744C528.41 47.8293 530.202 48.9813 533.786 51.2C537.967 53.6747 540.058 55.2533 540.058 55.936C540.058 56.1067 539.845 56.2773 539.418 56.448C537.797 56.96 538.138 57.728 540.442 58.752C541.295 59.0933 541.807 59.5627 541.978 60.16C542.234 60.672 542.362 61.568 542.362 62.848C542.362 64.896 542.618 65.92 543.13 65.92C543.471 65.92 549.317 68.9067 560.666 74.88C571.845 80.8533 577.818 83.84 578.586 83.84C579.61 83.84 581.061 84.224 582.938 84.992C584.73 85.76 585.797 86.912 586.138 88.448C586.223 88.8747 586.266 89.3013 586.266 89.728C586.351 90.1547 586.394 90.496 586.394 90.752V91.136C585.882 91.136 574.021 84.864 550.81 72.32C527.599 59.776 515.823 53.504 515.482 53.504C514.885 53.504 512.965 56.2347 509.722 61.696L504.986 69.76C502.938 68.3947 501.445 67.3707 500.506 66.688L501.786 63.488C502.298 62.1227 502.554 61.0133 502.554 60.16C502.554 59.4773 502.426 58.8373 502.17 58.24C501.999 57.728 501.914 57.3013 501.914 56.96C501.914 55.5093 503.877 51.2427 507.802 44.16L514.202 32.384L519.066 32.256H520.474C523.205 32.256 524.57 32.5973 524.57 33.28C524.57 34.4747 524.015 36.0107 522.906 37.888C522.565 38.5707 522.266 39.1253 522.01 39.552C521.839 39.8933 521.583 40.3627 521.242 40.96C520.986 41.5573 520.858 41.9413 520.858 42.112C520.858 42.1973 520.858 42.3253 520.858 42.496C521.882 42.496 530.245 38.6133 545.946 30.848Z" fill="#FFFFFF"/>
</svg>
