<svg width="16" height="22" viewBox="0 0 16 22" fill="none" xmlns="http://www.w3.org/2000/svg">
<g clip-path="url(#clip0_1020_9)">
<path d="M16 14C16 14.2708 15.901 14.5052 15.7031 14.7031L8.70312 21.7031C8.50521 21.901 8.27083 22 8 22C7.72917 22 7.49479 21.901 7.29688 21.7031L0.296875 14.7031C0.0989583 14.5052 0 14.2708 0 14C0 13.7292 0.0989583 13.4948 0.296875 13.2969C0.494792 13.099 0.729167 13 1 13H15C15.2708 13 15.5052 13.099 15.7031 13.2969C15.901 13.4948 16 13.7292 16 14ZM16 8C16 8.27083 15.901 8.50521 15.7031 8.70312C15.5052 8.90104 15.2708 9 15 9H1C0.729167 9 0.494792 8.90104 0.296875 8.70312C0.0989583 8.50521 0 8.27083 0 8C0 7.72917 0.0989583 7.49479 0.296875 7.29688L7.29688 0.296875C7.49479 0.0989583 7.72917 0 8 0C8.27083 0 8.50521 0.0989583 8.70312 0.296875L15.7031 7.29688C15.901 7.49479 16 7.72917 16 8Z" fill="#585A70"/>
</g>
<defs>
<clipPath id="clip0_1020_9">
<rect width="16" height="22" fill="white"/>
</clipPath>
</defs>
</svg>
